<svg width="125" height="125" viewBox="0 0 125 125" fill="none" xmlns="http://www.w3.org/2000/svg">
<path d="M62.4951 114.583C36.7486 114.244 15.9595 93.4548 15.6201 67.7083C15.9595 41.9618 36.7486 21.1726 62.4951 20.8333C88.2416 21.1726 109.031 41.9618 109.37 67.7083C109.031 93.4548 88.2416 114.244 62.4951 114.583ZM62.4951 31.25C42.4699 31.5136 26.3004 47.6831 26.0368 67.7083C26.3004 87.7335 42.4699 103.903 62.4951 104.167C82.5203 103.903 98.6898 87.7335 98.9535 67.7083C98.6898 47.6831 82.5203 31.5136 62.4951 31.25ZM88.5368 72.9166H57.2868V41.6666H67.7034V62.5H88.5368V72.9166ZM105.683 34.9375L90.0107 19.3125L97.3493 11.9323L113.026 27.5573L105.683 34.9323V34.9375ZM19.3024 34.9375L11.9326 27.5573L27.5107 11.9323L34.8805 19.3125L19.3128 34.9375H19.3024Z" fill="white"/>
</svg>
