<svg width="42" height="42" viewBox="0 0 42 42" fill="none" xmlns="http://www.w3.org/2000/svg">
<g clip-path="url(#clip0_206_73)">
<path d="M20.9997 0.166599C32.5056 0.166599 41.833 9.494 41.833 21C41.833 32.5059 32.5056 41.8333 20.9997 41.8333C9.4937 41.8333 0.166302 32.5059 0.166302 21C0.179002 9.4993 9.499 0.179299 20.9997 0.166599ZM20.9997 37.6666C30.2044 37.6666 37.6663 30.2047 37.6663 21C37.6663 11.7952 30.2044 4.3333 20.9997 4.3333C11.7949 4.3333 4.333 11.7952 4.333 21C4.3433 30.2004 11.7992 37.6563 20.9997 37.6666ZM21.1038 13.7083L31.4163 24.0208L28.4705 26.9666L21.1038 19.6021L13.7372 26.9666L10.7913 24.0208L21.1038 13.7083Z" fill="white"/>
</g>
<defs>
<clipPath id="clip0_206_73">
<rect x="42" y="42" width="42" height="42" rx="21" transform="rotate(-180 42 42)" fill="white"/>
</clipPath>
</defs>
</svg>
