<svg width="42" height="42" viewBox="0 0 42 42" fill="none" xmlns="http://www.w3.org/2000/svg">
<path d="M21.0003 41.8334C9.49439 41.8334 0.166992 32.506 0.166992 21C0.166992 9.49409 9.49439 0.166687 21.0003 0.166687C32.5063 0.166687 41.8337 9.49409 41.8337 21C41.821 32.5007 32.501 41.8207 21.0003 41.8334ZM21.0003 4.33335C11.7956 4.33335 4.33366 11.7953 4.33366 21C4.33366 30.2048 11.7956 37.6667 21.0003 37.6667C30.2051 37.6667 37.667 30.2048 37.667 21C37.6567 11.7996 30.2008 4.34369 21.0003 4.33335ZM20.8962 28.2917L10.5837 17.9792L13.5295 15.0334L20.8962 22.3979L28.2628 15.0334L31.2087 17.9792L20.8962 28.2917Z" fill="white"/>
</svg>
