<svg width="86" height="70" viewBox="0 0 86 70" fill="none" xmlns="http://www.w3.org/2000/svg">
<path d="M42.9973 17.6323C41.395 17.6323 40.0928 16.3292 40.0928 14.7278C40.0928 13.1264 41.3959 11.8232 42.9973 11.8232C44.5987 11.8232 45.9019 13.1264 45.9019 14.7278C45.9019 16.3292 44.5987 17.6323 42.9973 17.6323ZM42.9973 13.7041C42.4328 13.7041 41.9746 14.1632 41.9746 14.7268C41.9746 15.2904 42.4337 15.7496 42.9973 15.7496C43.5609 15.7496 44.0201 15.2904 44.0201 14.7268C44.0201 14.1632 43.5609 13.7041 42.9973 13.7041Z" fill="#0070F3"/>
<path d="M84.47 31.4409H82.1488L74.2378 6.56363C75.3132 5.74506 75.794 4.30172 75.3085 2.9666C75.0187 2.1706 74.4373 1.5355 73.6695 1.17796C72.9017 0.820418 72.0417 0.782782 71.2458 1.07164C70.4498 1.36143 69.8147 1.9429 69.4562 2.71161C69.236 3.18394 69.1523 3.69108 69.1767 4.19729L48.622 11.6529C47.5315 9.66576 45.4192 8.31464 42.9964 8.31464C39.4605 8.31464 36.5842 11.1919 36.5842 14.7268C36.5842 15.1587 36.6284 15.5793 36.7102 15.9876L16.1734 23.4875C15.8666 23.0848 15.4762 22.7498 15.0048 22.5297C14.2379 22.1731 13.3761 22.1335 12.5801 22.4243C10.9373 23.0217 10.0877 24.8452 10.6851 26.488C10.91 27.1052 11.3108 27.6077 11.8076 27.9661L3.99255 52.5404H1.67136C1.15199 52.5404 0.730469 52.961 0.730469 53.4813V56.6662C0.730469 59.1615 2.76092 61.1929 5.25711 61.1929H22.0699C24.5652 61.1929 26.5966 59.1624 26.5966 56.6662V53.4813C26.5966 52.961 26.1751 52.5404 25.6557 52.5404H23.3345L15.5185 27.9596C15.9504 27.6472 16.306 27.2398 16.5375 26.7439C16.7577 26.2707 16.8414 25.7635 16.8169 25.2564L37.3482 17.7584C37.9231 18.8254 38.7924 19.7089 39.8453 20.3054V52.6063C34.3251 52.9629 29.9198 57.4331 29.6639 62.9796H26.8356C26.3162 62.9796 25.8947 63.4002 25.8947 63.9205V69.054C25.8947 69.5744 26.3162 69.9949 26.8356 69.9949H59.159C59.6793 69.9949 60.0999 69.5744 60.0999 69.054V63.9205C60.0999 63.4002 59.6793 62.9796 59.159 62.9796H56.3298C56.0738 57.4321 51.6686 52.9619 46.1484 52.6063V20.3054C48.0932 19.2027 49.4104 17.1167 49.4104 14.7259C49.4104 14.2771 49.3634 13.8396 49.2749 13.4162L69.8203 5.96523C70.0518 6.27008 70.335 6.52882 70.6652 6.73299L62.8078 31.4409H60.4866C59.9663 31.4409 59.5457 31.8624 59.5457 32.3818V35.5667C59.5457 38.0619 61.5762 40.0924 64.0724 40.0924H80.8852C83.3805 40.0924 85.4118 38.0619 85.4118 35.5667V32.3818C85.4109 31.8624 84.9903 31.4409 84.47 31.4409ZM13.2227 24.1932C13.3667 24.1405 13.5163 24.1151 13.664 24.1151C13.8503 24.1151 14.0347 24.1555 14.2088 24.2364C14.5211 24.3813 14.7573 24.6401 14.8749 24.9628V24.9638C14.9916 25.2865 14.9775 25.6365 14.8316 25.9479C14.6867 26.2603 14.428 26.4965 14.1053 26.6141C13.4391 26.8597 12.6958 26.5115 12.4531 25.8444C12.2094 25.1773 12.5556 24.4359 13.2227 24.1932ZM24.7148 56.6653C24.7148 58.1237 23.5283 59.3101 22.0699 59.3101H5.25711C3.79872 59.3101 2.61226 58.1237 2.61226 56.6653V54.4213H24.7148V56.6653ZM5.96748 52.5404L13.5906 28.5693C13.617 28.5702 13.6424 28.5749 13.6678 28.5749C13.6903 28.5749 13.7139 28.5693 13.7374 28.5693L21.3596 52.5404H5.96748ZM58.2181 68.1141H27.7765V64.8624H30.5794H55.4152H58.2181V68.1141ZM54.4602 62.9806H31.5334C31.7969 58.2338 35.7411 54.4532 40.5519 54.4532H40.7862H45.2065H45.4408C50.2525 54.4532 54.1958 58.2338 54.4602 62.9806ZM44.2666 52.5715H41.728V21.0129C42.1383 21.0957 42.5626 21.14 42.9973 21.14C43.432 21.14 43.8563 21.0957 44.2666 21.0129V52.5715V52.5715ZM42.9973 19.2591C40.4992 19.2591 38.4669 17.2258 38.4669 14.7278C38.4669 12.2297 40.4992 10.1974 42.9973 10.1974C45.4963 10.1974 47.5286 12.2297 47.5286 14.7278C47.5286 17.2258 45.4954 19.2591 42.9973 19.2591ZM71.162 3.50573C71.3079 3.19429 71.5666 2.95719 71.8893 2.83958C72.0333 2.78689 72.1829 2.76148 72.3315 2.76148C72.5169 2.76148 72.7023 2.80194 72.8754 2.88286C73.1868 3.0287 73.4239 3.2865 73.5415 3.60923C73.7843 4.27726 73.439 5.01869 72.7719 5.26144C72.4482 5.37999 72.0991 5.36399 71.7858 5.2191C71.4753 5.0742 71.2382 4.81639 71.1206 4.49273C71.1206 4.49179 71.1197 4.49179 71.1197 4.49084C71.0021 4.16812 71.0162 3.81811 71.162 3.50573ZM72.4783 7.24014L80.1739 31.4409H64.7828L72.4783 7.24014ZM83.5291 35.5667C83.5291 37.0251 82.3427 38.2115 80.8843 38.2115H64.0724C62.614 38.2115 61.4275 37.0251 61.4275 35.5667V33.3227H63.4928C63.4937 33.3227 63.4947 33.3227 63.4956 33.3227C63.4966 33.3227 63.4975 33.3227 63.4984 33.3227H81.4582C81.4592 33.3227 81.4601 33.3227 81.461 33.3227C81.462 33.3227 81.4629 33.3227 81.4639 33.3227H83.5291V35.5667V35.5667Z" fill="#0070F3"/>
</svg>
