<svg width="125" height="125" viewBox="0 0 125 125" fill="none" xmlns="http://www.w3.org/2000/svg">
<path d="M20.8337 98.9584H10.417C10.417 81.6995 24.4081 67.7084 41.667 67.7084C58.9259 67.7084 72.917 81.6995 72.917 98.9584H62.5003C62.5003 87.4524 53.1729 78.125 41.667 78.125C30.1611 78.125 20.8337 87.4524 20.8337 98.9584ZM83.3024 80.2605L69.2087 66.198L76.5628 58.8125L83.292 65.5417L105.688 43.1875L113.042 50.5625L83.292 80.25L83.3024 80.2605ZM41.667 62.5C30.1611 62.5 20.8337 53.1726 20.8337 41.6667C20.8337 30.1608 30.1611 20.8334 41.667 20.8334C53.1729 20.8334 62.5003 30.1608 62.5003 41.6667C62.486 53.1667 53.167 62.4857 41.667 62.5ZM41.667 31.25C35.9763 31.2558 31.3435 35.8274 31.2619 41.5174C31.1804 47.2075 35.6804 51.91 41.3685 52.0788C47.0566 52.2476 51.8276 47.8203 52.0837 42.1355V44.2188V41.6667C52.0837 35.9137 47.42 31.25 41.667 31.25Z" fill="white"/>
</svg>
