<svg width="413" height="395" viewBox="0 0 413 395" fill="none" xmlns="http://www.w3.org/2000/svg">
<g clip-path="url(#clip0_170_92)">
<g filter="url(#filter0_d_170_92)">
<rect x="30" y="23" width="354" height="349" rx="50" fill="white"/>
<path d="M207.036 205.438C204.885 205.438 202.734 204.618 201.093 202.977C197.813 199.697 197.813 194.375 201.093 191.093L247.233 144.955C250.516 141.675 255.831 141.675 259.114 144.955C262.397 148.235 262.397 153.556 259.114 156.839L212.976 202.977C211.335 204.618 209.187 205.438 207.036 205.438Z" fill="#0070F3"/>
<path d="M283.753 162.816C283.436 162.816 283.112 162.799 282.792 162.76L252.216 159.245C248.334 158.8 245.273 155.738 244.827 151.856L241.312 121.277C241.021 118.728 241.906 116.188 243.718 114.376L280.759 77.3382C283.039 75.0556 286.43 74.2882 289.464 75.3441C292.508 76.4056 294.676 79.1167 295.046 82.3181L297.796 106.271L321.751 109.021C324.955 109.388 327.664 111.558 328.725 114.603C329.787 117.647 329.014 121.031 326.731 123.311L289.693 160.354C288.108 161.939 285.968 162.816 283.753 162.816Z" fill="#0070F3"/>
<path d="M207.036 277.326C162.763 277.326 126.745 241.308 126.745 197.036C126.745 152.764 162.763 116.745 207.036 116.745C210.201 116.745 213.455 116.975 217.275 117.462C221.877 118.051 225.132 122.26 224.541 126.865C223.95 131.466 219.762 134.724 215.138 134.13C212.046 133.732 209.47 133.547 207.036 133.547C172.028 133.547 143.55 162.026 143.55 197.033C143.55 232.04 172.028 260.519 207.036 260.519C242.043 260.519 270.521 232.04 270.521 197.033C270.521 194.608 270.337 192.031 269.939 188.928C269.348 184.323 272.602 180.116 277.207 179.525C281.792 178.926 286.018 182.189 286.606 186.791C287.097 190.619 287.326 193.874 287.326 197.03C287.326 241.308 251.308 277.326 207.036 277.326Z" fill="#0070F3"/>
<path d="M207.036 231.578C187.988 231.578 172.494 216.084 172.494 197.036C172.494 179.864 184.818 165.519 201.796 162.922C206.367 162.2 210.672 165.37 211.372 169.958C212.072 174.546 208.921 178.831 204.334 179.531C195.76 180.842 189.296 188.365 189.296 197.033C189.296 206.814 197.253 214.771 207.034 214.771C215.702 214.771 223.225 208.306 224.536 199.736C225.239 195.145 229.552 191.986 234.112 192.7C238.699 193.401 241.85 197.689 241.15 202.273C238.557 219.258 224.211 231.578 207.036 231.578Z" fill="#0070F3"/>
<path d="M207.036 323.072C137.54 323.072 81 266.532 81 197.036C81 127.54 137.54 71 207.036 71C217.685 71 228.333 72.364 238.679 75.0584C243.172 76.2263 245.861 80.814 244.693 85.3065C243.525 89.7962 238.951 92.4961 234.445 91.3226C225.479 88.9867 216.259 87.8048 207.036 87.8048C146.805 87.8048 97.8048 136.805 97.8048 197.036C97.8048 257.267 146.805 306.267 207.036 306.267C267.267 306.267 316.267 257.267 316.267 197.036C316.267 187.816 315.085 178.596 312.752 169.622C311.584 165.129 314.279 160.544 318.768 159.376C323.258 158.209 327.849 160.903 329.014 165.393C331.708 175.744 333.072 186.39 333.072 197.036C333.072 266.532 276.532 323.072 207.036 323.072Z" fill="#0070F3"/>
</g>
</g>
<defs>
<filter id="filter0_d_170_92" x="30" y="23" width="379" height="374" filterUnits="userSpaceOnUse" color-interpolation-filters="sRGB">
<feFlood flood-opacity="0" result="BackgroundImageFix"/>
<feColorMatrix in="SourceAlpha" type="matrix" values="0 0 0 0 0 0 0 0 0 0 0 0 0 0 0 0 0 0 127 0" result="hardAlpha"/>
<feOffset dx="15" dy="15"/>
<feGaussianBlur stdDeviation="5"/>
<feComposite in2="hardAlpha" operator="out"/>
<feColorMatrix type="matrix" values="0 0 0 0 0 0 0 0 0 0 0 0 0 0 0 0 0 0 0.1 0"/>
<feBlend mode="normal" in2="BackgroundImageFix" result="effect1_dropShadow_170_92"/>
<feBlend mode="normal" in="SourceGraphic" in2="effect1_dropShadow_170_92" result="shape"/>
</filter>
<clipPath id="clip0_170_92">
<rect width="413" height="395" fill="white"/>
</clipPath>
</defs>
</svg>
