<svg width="58" height="58" viewBox="0 0 58 58" fill="none" xmlns="http://www.w3.org/2000/svg">
<path d="M1.16016 45.3757H34.8002V56.7043L41.7602 52.5283L48.7202 56.7043V45.3757H56.8402V1.29572H1.16016V45.3757ZM46.7076 37.504C46.6032 37.6095 46.4918 37.707 46.3816 37.8056C46.319 37.8612 46.261 37.9204 46.196 37.9738C46.1241 38.0341 46.0475 38.0851 45.9733 38.142C44.9954 38.8902 43.8168 39.3878 42.5304 39.5305C42.5095 39.5328 42.4886 39.5374 42.4666 39.5398C42.2334 39.563 41.9968 39.5757 41.7578 39.5757C41.5189 39.5757 41.2822 39.563 41.0491 39.5398C41.0282 39.5374 41.0073 39.5328 40.9853 39.5305C39.6988 39.3878 38.5214 38.8902 37.5424 38.142C37.4682 38.0851 37.3916 38.0329 37.3197 37.9738C37.2559 37.9204 37.1967 37.8612 37.1341 37.8056C37.0239 37.707 36.9137 37.6095 36.8081 37.504C35.5658 36.2465 34.7955 34.5204 34.7955 32.6157C34.7955 28.7773 37.9171 25.6557 41.7555 25.6557C45.594 25.6557 48.7155 28.7773 48.7155 32.6157C48.7202 34.5193 47.9511 36.2454 46.7076 37.504ZM46.4002 52.6072L41.7602 49.8232L37.1202 52.6072V45.3757V40.6545C37.1596 40.6777 37.2037 40.6928 37.2443 40.7148C37.5517 40.8865 37.8684 41.0443 38.1955 41.1812C38.2094 41.187 38.2245 41.1916 38.2396 41.1974C39.3265 41.6452 40.5143 41.8957 41.7613 41.8957C43.0083 41.8957 44.1962 41.6452 45.2831 41.1974C45.297 41.1916 45.3121 41.187 45.3272 41.1812C45.6543 41.0443 45.971 40.8877 46.2784 40.7148C46.319 40.6928 46.363 40.6777 46.4025 40.6545V45.3757V52.6072H46.4002ZM3.48016 3.61572H54.5202V43.0557H48.7202V38.7336C50.1597 37.098 51.0402 34.9601 51.0402 32.6157C51.0402 27.499 46.8769 23.3357 41.7602 23.3357C36.6434 23.3357 32.4802 27.499 32.4802 32.6157C32.4802 34.9601 33.3606 37.098 34.8002 38.7336V43.0557H3.48016V3.61572Z" fill="black"/>
<path d="M44.0799 8.25574H13.9199V10.5757H44.0799V8.25574Z" fill="black"/>
<path d="M38.2797 15.2157H19.7197V17.5357H38.2797V15.2157Z" fill="black"/>
<path d="M20.8801 36.0957H8.12012V38.4157H20.8801V36.0957Z" fill="black"/>
</svg>
