<svg width="413" height="395" viewBox="0 0 413 395" fill="none" xmlns="http://www.w3.org/2000/svg">
<g clip-path="url(#clip0_170_126)">
<g filter="url(#filter0_d_170_126)">
<rect x="30" y="23" width="354" height="349" rx="50" fill="white"/>
</g>
<path d="M302.641 72.4004H110.395V208.855H302.641V72.4004Z" fill="white"/>
<path d="M192.542 223.616L149.802 321.672H135.042L177.782 223.616H192.542Z" fill="#0070F3"/>
<path d="M220.494 223.616L263.234 321.672H277.995L235.254 223.616H220.494Z" fill="#0070F3"/>
<path d="M199.135 223.605V321.661H213.895V223.605H199.135Z" fill="#0070F3"/>
<path d="M302.641 194.599H110.395V208.883H302.641V194.599Z" fill="#0070F3"/>
<path d="M302.641 72.4004H110.395V86.6845H302.641V72.4004Z" fill="#0070F3"/>
<path d="M249.455 208.855H163.61V223.616H249.455V208.855Z" fill="white"/>
<path d="M109 71V88.0765V193.193V210.27H162.198V225.024H175.639L132.908 323.072H150.715L193.447 225.022H197.741V323.072H215.296V225.022H219.59L262.321 323.072H280.129L237.397 225.022H250.838V210.267H304.034V193.191V88.0765V71H109ZM111.801 73.8008H301.233V85.2757H111.801V73.8008ZM148.881 320.271H137.182L178.692 225.022H190.391L148.881 320.271ZM212.495 320.271H200.541V225.022H212.495V320.271ZM275.852 320.271H264.153L222.645 225.022H234.344L275.852 320.271ZM248.037 222.221H236.176H218.366H215.293H197.738H194.665H176.858H164.999V210.267H248.037V222.221ZM301.233 207.469H250.838H162.198H111.801V195.994H301.233V207.469V207.469ZM301.233 193.193H111.801V88.0765H301.233V193.193V193.193Z" fill="#0070F3"/>
<path d="M168.904 155.332H140.392V183.844H168.904V155.332Z" fill="#0070F3"/>
<path d="M220.774 146.174H192.262V183.844H220.774V146.174Z" fill="#0070F3"/>
<path d="M272.673 118.698H244.161V183.816H272.673V118.698Z" fill="#0070F3"/>
<path d="M168.884 185.233H140.38C139.607 185.233 138.979 184.606 138.979 183.833V155.326C138.979 154.553 139.607 153.926 140.38 153.926H168.884C169.657 153.926 170.284 154.553 170.284 155.326V183.83C170.284 184.606 169.657 185.233 168.884 185.233ZM141.78 182.433H167.483V156.73H141.78V182.433Z" fill="#0070F3"/>
<path d="M220.771 185.233H192.268C191.495 185.233 190.867 184.606 190.867 183.833V146.171C190.867 145.398 191.495 144.77 192.268 144.77H220.771C221.544 144.77 222.172 145.398 222.172 146.171V183.833C222.172 184.606 221.544 185.233 220.771 185.233ZM193.668 182.433H219.371V147.571H193.668V182.433Z" fill="#0070F3"/>
<path d="M272.656 185.233H244.155C243.382 185.233 242.755 184.606 242.755 183.833V118.7C242.755 117.927 243.382 117.3 244.155 117.3H272.659C273.432 117.3 274.059 117.927 274.059 118.7V183.83C274.057 184.606 273.432 185.233 272.656 185.233ZM245.556 182.433H271.259V120.101H245.556V182.433V182.433Z" fill="#0070F3"/>
<path d="M158.278 139.939C152.351 139.939 146.312 139.446 140.159 138.463C139.397 138.342 138.876 137.623 138.997 136.858C139.117 136.096 139.84 135.564 140.602 135.696C176.469 141.443 208.515 129.934 235.846 101.506C236.381 100.949 237.274 100.935 237.826 101.467C238.383 102.002 238.4 102.89 237.865 103.447C214.534 127.713 187.829 139.939 158.278 139.939Z" fill="#0070F3"/>
<path d="M236.853 116.468C236.08 116.468 235.453 115.841 235.453 115.068V103.879H224.267C223.494 103.879 222.866 103.251 222.866 102.478C222.866 101.705 223.494 101.078 224.267 101.078H236.853C237.626 101.078 238.254 101.705 238.254 102.478V115.068C238.254 115.841 237.626 116.468 236.853 116.468Z" fill="#0070F3"/>
<path d="M165.038 99.0303H152.622C151.849 99.0303 151.222 98.4029 151.222 97.6299C151.222 96.8569 151.849 96.2295 152.622 96.2295H165.038C165.811 96.2295 166.438 96.8569 166.438 97.6299C166.438 98.4029 165.814 99.0303 165.038 99.0303Z" fill="#0070F3"/>
<path d="M121.996 128.31C121.223 128.31 120.596 127.682 120.596 126.909V97.6299C120.596 96.8569 121.223 96.2295 121.996 96.2295H142.117C142.89 96.2295 143.517 96.8569 143.517 97.6299C143.517 98.4029 142.89 99.0303 142.117 99.0303H123.397V126.909C123.397 127.682 122.772 128.31 121.996 128.31Z" fill="#0070F3"/>
</g>
<defs>
<filter id="filter0_d_170_126" x="30" y="23" width="379" height="374" filterUnits="userSpaceOnUse" color-interpolation-filters="sRGB">
<feFlood flood-opacity="0" result="BackgroundImageFix"/>
<feColorMatrix in="SourceAlpha" type="matrix" values="0 0 0 0 0 0 0 0 0 0 0 0 0 0 0 0 0 0 127 0" result="hardAlpha"/>
<feOffset dx="15" dy="15"/>
<feGaussianBlur stdDeviation="5"/>
<feComposite in2="hardAlpha" operator="out"/>
<feColorMatrix type="matrix" values="0 0 0 0 0 0 0 0 0 0 0 0 0 0 0 0 0 0 0.1 0"/>
<feBlend mode="normal" in2="BackgroundImageFix" result="effect1_dropShadow_170_126"/>
<feBlend mode="normal" in="SourceGraphic" in2="effect1_dropShadow_170_126" result="shape"/>
</filter>
<clipPath id="clip0_170_126">
<rect width="413" height="395" fill="white"/>
</clipPath>
</defs>
</svg>
