<svg width="413" height="395" viewBox="0 0 413 395" fill="none" xmlns="http://www.w3.org/2000/svg">
<g clip-path="url(#clip0_174_120)">
<g filter="url(#filter0_d_174_120)">
<rect x="30" y="23" width="354" height="349" rx="50" fill="white"/>
</g>
<path d="M330.271 100.729H171.866C170.32 100.729 169.065 99.474 169.065 97.928C169.065 96.382 170.32 95.1272 171.866 95.1272H330.271C331.82 95.1272 333.072 96.382 333.072 97.928C333.072 99.474 331.82 100.729 330.271 100.729Z" fill="#0070F3"/>
<path d="M304.053 127.768H171.866C170.32 127.768 169.065 126.513 169.065 124.967C169.065 123.421 170.32 122.166 171.866 122.166H304.053C305.602 122.166 306.854 123.421 306.854 124.967C306.854 126.513 305.599 127.768 304.053 127.768Z" fill="#0070F3"/>
<path d="M330.271 185.705H171.866C170.32 185.705 169.065 184.45 169.065 182.904C169.065 181.358 170.32 180.104 171.866 180.104H330.271C331.82 180.104 333.072 181.358 333.072 182.904C333.072 184.45 331.82 185.705 330.271 185.705Z" fill="#0070F3"/>
<path d="M304.053 212.744H171.866C170.32 212.744 169.065 211.492 169.065 209.943C169.065 208.394 170.32 207.142 171.866 207.142H304.053C305.602 207.142 306.854 208.394 306.854 209.943C306.854 211.492 305.599 212.744 304.053 212.744Z" fill="#0070F3"/>
<path d="M143.794 312.682H83.8008C82.2548 312.682 81 311.43 81 309.881V253.753C81 252.204 82.2548 250.953 83.8008 250.953H143.794C145.34 250.953 146.595 252.204 146.595 253.753V309.881C146.595 311.43 145.34 312.682 143.794 312.682ZM86.6016 307.081H140.993V256.554H86.6016V307.081Z" fill="#0070F3"/>
<path d="M330.271 270.681H171.866C170.32 270.681 169.065 269.429 169.065 267.881C169.065 266.332 170.32 265.08 171.866 265.08H330.271C331.82 265.08 333.072 266.332 333.072 267.881C333.072 269.429 331.82 270.681 330.271 270.681Z" fill="#0070F3"/>
<path d="M304.053 297.72H171.866C170.32 297.72 169.065 296.468 169.065 294.919C169.065 293.371 170.32 292.119 171.866 292.119H304.053C305.602 292.119 306.854 293.371 306.854 294.919C306.854 296.468 305.599 297.72 304.053 297.72Z" fill="#0070F3"/>
<path d="M143.794 227.709H83.8008C82.2548 227.709 81 226.457 81 224.908V168.777C81 167.231 82.2548 165.976 83.8008 165.976H143.794C145.34 165.976 146.595 167.231 146.595 168.777V224.908C146.595 226.457 145.34 227.709 143.794 227.709ZM86.6016 222.107H140.993V171.578H86.6016V222.107Z" fill="#0070F3"/>
<path d="M143.794 142.732H83.8008C82.2548 142.732 81 141.478 81 139.932V83.8008C81 82.2548 82.2548 81 83.8008 81H143.794C145.34 81 146.595 82.2548 146.595 83.8008V139.932C146.595 141.478 145.34 142.732 143.794 142.732ZM86.6016 137.131H140.993V86.6016H86.6016V137.131Z" fill="#0070F3"/>
<path d="M121.376 215.046H106.207C105.16 215.046 104.199 214.461 103.717 213.528C103.238 212.598 103.317 211.478 103.924 210.621L117.758 191.175C118.715 189.831 118.85 188.131 118.119 186.629C117.786 185.943 116.769 184.344 114.534 184.24C114.531 184.24 114.528 184.24 114.525 184.24C111.375 184.24 109.011 186.607 109.011 189.517C109.011 191.063 107.756 192.318 106.21 192.318C104.664 192.318 103.409 191.063 103.409 189.517C103.409 183.515 108.291 178.633 114.293 178.633L114.789 178.644C118.421 178.81 121.55 180.874 123.158 184.173C124.776 187.495 124.457 191.422 122.326 194.418L111.641 209.442H121.379C122.925 209.442 124.18 210.694 124.18 212.243C124.18 213.792 122.922 215.046 121.376 215.046Z" fill="#0070F3"/>
<path d="M113.63 300.023C108.986 300.023 104.838 296.886 103.547 292.393C103.118 290.906 103.978 289.354 105.465 288.929C106.958 288.506 108.504 289.36 108.93 290.847C109.535 292.953 111.467 294.421 113.63 294.421C116.344 294.421 118.553 292.214 118.553 289.497C118.553 286.78 116.344 284.573 113.63 284.573C112.084 284.573 110.829 283.321 110.829 281.773C110.829 280.224 112.084 278.972 113.63 278.972C119.433 278.972 124.155 283.694 124.155 289.497C124.155 295.3 119.436 300.023 113.63 300.023Z" fill="#0070F3"/>
<path d="M113.63 284.663C112.083 284.663 110.829 283.411 110.829 281.862C110.829 280.313 112.083 279.061 113.63 279.061C116.344 279.061 118.553 276.854 118.553 274.138C118.553 271.421 116.344 269.214 113.63 269.214C111.467 269.214 109.535 270.681 108.93 272.785C108.504 274.269 106.952 275.126 105.465 274.703C103.978 274.278 103.121 272.726 103.547 271.239C104.838 266.746 108.983 263.612 113.63 263.612C119.433 263.612 124.155 268.334 124.155 274.138C124.155 279.941 119.436 284.663 113.63 284.663Z" fill="#0070F3"/>
<path d="M113.798 130.07C112.252 130.07 110.997 128.815 110.997 127.269V101.998L107 104.938C105.751 105.852 104.001 105.585 103.085 104.342C102.169 103.096 102.435 101.342 103.681 100.426L112.14 94.203C112.991 93.5756 114.123 93.486 115.064 93.9593C116.008 94.4355 116.601 95.4045 116.601 96.4604V127.269C116.599 128.815 115.344 130.07 113.798 130.07Z" fill="#0070F3"/>
</g>
<defs>
<filter id="filter0_d_174_120" x="30" y="23" width="379" height="374" filterUnits="userSpaceOnUse" color-interpolation-filters="sRGB">
<feFlood flood-opacity="0" result="BackgroundImageFix"/>
<feColorMatrix in="SourceAlpha" type="matrix" values="0 0 0 0 0 0 0 0 0 0 0 0 0 0 0 0 0 0 127 0" result="hardAlpha"/>
<feOffset dx="15" dy="15"/>
<feGaussianBlur stdDeviation="5"/>
<feComposite in2="hardAlpha" operator="out"/>
<feColorMatrix type="matrix" values="0 0 0 0 0 0 0 0 0 0 0 0 0 0 0 0 0 0 0.1 0"/>
<feBlend mode="normal" in2="BackgroundImageFix" result="effect1_dropShadow_174_120"/>
<feBlend mode="normal" in="SourceGraphic" in2="effect1_dropShadow_174_120" result="shape"/>
</filter>
<clipPath id="clip0_174_120">
<rect width="413" height="395" fill="white"/>
</clipPath>
</defs>
</svg>
