<svg width="366" height="160" viewBox="0 0 366 160" fill="none" xmlns="http://www.w3.org/2000/svg">
<path d="M52.12 3.34399H96.28V16.784H66.04V32.816H92.248V46.256H66.04V74H52.12V3.34399ZM109.683 3.34399H123.603V74H109.683V3.34399ZM141.839 3.34399H190.031V16.784H155.759V31.856H186.095V45.296H155.759V60.56H191.375V74H141.839V3.34399ZM243.504 20.432C240.816 18.96 238.064 17.744 235.248 16.784C232.496 15.824 229.904 15.344 227.472 15.344C224.464 15.344 222.096 15.952 220.368 17.168C218.64 18.384 217.776 20.208 217.776 22.64C217.776 24.304 218.416 25.808 219.696 27.152C221.04 28.432 222.736 29.584 224.784 30.608C226.896 31.632 229.072 32.56 231.312 33.392C233.36 34.16 235.376 35.088 237.36 36.176C239.408 37.2 241.232 38.512 242.832 40.112C244.432 41.648 245.712 43.6 246.672 45.968C247.632 48.272 248.112 51.12 248.112 54.512C248.112 58.096 247.184 61.424 245.328 64.496C243.472 67.568 240.752 70.064 237.168 71.984C233.584 73.84 229.168 74.768 223.92 74.768C221.232 74.768 218.48 74.512 215.664 74C212.912 73.424 210.192 72.592 207.504 71.504C204.816 70.352 202.224 68.912 199.728 67.184L205.872 56.336C207.536 57.552 209.328 58.64 211.248 59.6C213.232 60.496 215.216 61.2 217.2 61.712C219.184 62.224 221.008 62.48 222.672 62.48C224.336 62.48 226 62.256 227.664 61.808C229.392 61.296 230.8 60.464 231.888 59.312C233.04 58.16 233.616 56.56 233.616 54.512C233.616 53.104 233.136 51.824 232.176 50.672C231.28 49.52 230.032 48.464 228.432 47.504C226.896 46.544 225.2 45.712 223.344 45.008C221.168 44.176 218.928 43.216 216.624 42.128C214.32 41.04 212.144 39.728 210.096 38.192C208.112 36.592 206.48 34.64 205.2 32.336C203.984 29.968 203.376 27.088 203.376 23.696C203.376 19.6 204.272 16.048 206.064 13.04C207.92 10.032 210.512 7.664 213.84 5.936C217.168 4.144 221.008 3.152 225.36 2.96C231.056 2.96 235.664 3.632 239.184 4.976C242.768 6.32 245.968 7.92 248.784 9.776L243.504 20.432ZM253.777 74L285.649 0.559996H286.417L318.289 74H302.161L281.809 22.352L291.889 15.44L267.505 74H253.777ZM275.569 48.464H296.785L301.681 60.176H271.249L275.569 48.464Z" fill="url(#paint0_linear_130_5)"/>
<path d="M10.9129 97.28H23.6489V98.784H12.4809V108.16H22.3689V109.632H12.4809V120H10.9129V97.28ZM31.6414 120.256C30.4467 120.256 29.3587 119.989 28.3774 119.456C27.4174 118.901 26.6494 118.133 26.0734 117.152C25.5187 116.171 25.2414 115.029 25.2414 113.728C25.2414 112.341 25.54 111.157 26.1374 110.176C26.7347 109.173 27.5454 108.416 28.5694 107.904C29.5934 107.371 30.756 107.104 32.0574 107.104C33.1667 107.104 34.212 107.435 35.1934 108.096C36.196 108.757 36.9107 109.589 37.3374 110.592L37.1134 111.04L37.3054 107.488H38.6494V120H37.1454V116.128L37.4654 116.704C37.316 117.131 37.06 117.557 36.6974 117.984C36.3347 118.389 35.8867 118.773 35.3534 119.136C34.8414 119.477 34.2654 119.755 33.6254 119.968C33.0067 120.16 32.3454 120.256 31.6414 120.256ZM31.9614 118.976C32.9 118.976 33.7427 118.784 34.4894 118.4C35.2574 117.995 35.876 117.44 36.3454 116.736C36.8147 116.032 37.0814 115.221 37.1454 114.304V112.512C36.9747 111.723 36.6334 111.019 36.1214 110.4C35.6307 109.781 35.0227 109.291 34.2974 108.928C33.572 108.565 32.7827 108.384 31.9294 108.384C30.9907 108.384 30.1267 108.608 29.3374 109.056C28.548 109.483 27.9187 110.091 27.4494 110.88C26.98 111.669 26.7454 112.597 26.7454 113.664C26.7454 114.645 26.98 115.541 27.4494 116.352C27.9187 117.141 28.548 117.781 29.3374 118.272C30.148 118.741 31.0227 118.976 31.9614 118.976ZM53.9964 118.784C53.4204 119.253 52.7697 119.616 52.0444 119.872C51.319 120.128 50.5617 120.256 49.7724 120.256C48.4924 120.256 47.351 119.979 46.3484 119.424C45.3457 118.848 44.5564 118.069 43.9804 117.088C43.4044 116.107 43.1164 114.987 43.1164 113.728C43.1164 112.469 43.415 111.349 44.0124 110.368C44.6097 109.387 45.399 108.619 46.3804 108.064C47.383 107.488 48.471 107.2 49.6444 107.2C50.519 107.2 51.3297 107.328 52.0764 107.584C52.823 107.84 53.4737 108.203 54.0284 108.672L53.2284 109.696C52.7804 109.333 52.2577 109.035 51.6604 108.8C51.063 108.565 50.423 108.448 49.7404 108.448C48.8017 108.448 47.9377 108.683 47.1484 109.152C46.3804 109.621 45.7617 110.261 45.2924 111.072C44.8444 111.861 44.6204 112.747 44.6204 113.728C44.6204 114.688 44.8444 115.573 45.2924 116.384C45.7617 117.173 46.391 117.803 47.1804 118.272C47.991 118.741 48.887 118.976 49.8684 118.976C50.5084 118.976 51.1057 118.88 51.6604 118.688C52.215 118.475 52.7164 118.197 53.1644 117.856L53.9964 118.784ZM62.1121 120.352C60.9388 120.352 60.0001 120.011 59.2961 119.328C58.5921 118.624 58.2188 117.717 58.1761 116.608V107.488H59.6801V116.16C59.7228 116.971 59.9788 117.643 60.4481 118.176C60.9388 118.709 61.6641 118.997 62.6241 119.04C63.4348 119.04 64.1921 118.827 64.8961 118.4C65.6001 117.973 66.1655 117.397 66.5921 116.672C67.0401 115.925 67.2641 115.083 67.2641 114.144V107.488H68.7681V120H67.4241L67.2641 116.064L67.4881 116.928C67.2748 117.568 66.8908 118.155 66.3361 118.688C65.8028 119.2 65.1628 119.605 64.4161 119.904C63.6908 120.203 62.9228 120.352 62.1121 120.352ZM74.4574 95.68H75.9614V120H74.4574V95.68ZM86.7649 120.256C85.5915 120.256 84.5249 119.979 83.5649 119.424C82.6049 118.848 81.8369 118.059 81.2609 117.056C80.7062 116.053 80.4289 114.923 80.4289 113.664C80.4289 112.32 80.7169 111.157 81.2929 110.176C81.8689 109.195 82.6475 108.437 83.6289 107.904C84.6315 107.371 85.7302 107.104 86.9249 107.104C88.1195 107.104 89.2502 107.413 90.3169 108.032C91.4049 108.651 92.1942 109.461 92.6849 110.464L92.4289 111.168V95.68H93.9329V120H92.3969V116.16L92.7169 116.864C92.1835 117.867 91.3835 118.688 90.3169 119.328C89.2502 119.947 88.0662 120.256 86.7649 120.256ZM87.1489 118.944C88.1089 118.944 88.9729 118.741 89.7409 118.336C90.5089 117.909 91.1275 117.344 91.5969 116.64C92.0662 115.915 92.3329 115.104 92.3969 114.208V112.608C92.2475 111.797 91.9169 111.072 91.4049 110.432C90.8929 109.792 90.2742 109.291 89.5489 108.928C88.8235 108.544 88.0235 108.352 87.1489 108.352C86.1889 108.352 85.3142 108.576 84.5249 109.024C83.7355 109.472 83.1062 110.091 82.6369 110.88C82.1675 111.669 81.9329 112.587 81.9329 113.632C81.9329 114.613 82.1675 115.509 82.6369 116.32C83.1062 117.109 83.7355 117.749 84.5249 118.24C85.3355 118.709 86.2102 118.944 87.1489 118.944ZM104.798 120.256C103.603 120.256 102.515 119.989 101.534 119.456C100.574 118.901 99.8056 118.133 99.2296 117.152C98.675 116.171 98.3976 115.029 98.3976 113.728C98.3976 112.341 98.6963 111.157 99.2936 110.176C99.891 109.173 100.702 108.416 101.726 107.904C102.75 107.371 103.912 107.104 105.214 107.104C106.323 107.104 107.368 107.435 108.35 108.096C109.352 108.757 110.067 109.589 110.494 110.592L110.27 111.04L110.462 107.488H111.806V120H110.302V116.128L110.622 116.704C110.472 117.131 110.216 117.557 109.854 117.984C109.491 118.389 109.043 118.773 108.51 119.136C107.998 119.477 107.422 119.755 106.782 119.968C106.163 120.16 105.502 120.256 104.798 120.256ZM105.118 118.976C106.056 118.976 106.899 118.784 107.646 118.4C108.414 117.995 109.032 117.44 109.502 116.736C109.971 116.032 110.238 115.221 110.302 114.304V112.512C110.131 111.723 109.79 111.019 109.278 110.4C108.787 109.781 108.179 109.291 107.454 108.928C106.728 108.565 105.939 108.384 105.086 108.384C104.147 108.384 103.283 108.608 102.494 109.056C101.704 109.483 101.075 110.091 100.606 110.88C100.136 111.669 99.9016 112.597 99.9016 113.664C99.9016 114.645 100.136 115.541 100.606 116.352C101.075 117.141 101.704 117.781 102.494 118.272C103.304 118.741 104.179 118.976 105.118 118.976ZM122.609 120.256C121.435 120.256 120.369 119.979 119.409 119.424C118.449 118.848 117.681 118.059 117.105 117.056C116.55 116.053 116.273 114.923 116.273 113.664C116.273 112.32 116.561 111.157 117.137 110.176C117.713 109.195 118.491 108.437 119.473 107.904C120.475 107.371 121.574 107.104 122.769 107.104C123.963 107.104 125.094 107.413 126.161 108.032C127.249 108.651 128.038 109.461 128.529 110.464L128.273 111.168V95.68H129.777V120H128.241V116.16L128.561 116.864C128.027 117.867 127.227 118.688 126.161 119.328C125.094 119.947 123.91 120.256 122.609 120.256ZM122.993 118.944C123.953 118.944 124.817 118.741 125.585 118.336C126.353 117.909 126.971 117.344 127.441 116.64C127.91 115.915 128.177 115.104 128.241 114.208V112.608C128.091 111.797 127.761 111.072 127.249 110.432C126.737 109.792 126.118 109.291 125.393 108.928C124.667 108.544 123.867 108.352 122.993 108.352C122.033 108.352 121.158 108.576 120.369 109.024C119.579 109.472 118.95 110.091 118.481 110.88C118.011 111.669 117.777 112.587 117.777 113.632C117.777 114.613 118.011 115.509 118.481 116.32C118.95 117.109 119.579 117.749 120.369 118.24C121.179 118.709 122.054 118.944 122.993 118.944ZM140.897 120.256C139.596 120.256 138.444 119.968 137.441 119.392C136.439 118.816 135.649 118.037 135.073 117.056C134.519 116.053 134.241 114.933 134.241 113.696C134.241 112.48 134.54 111.371 135.137 110.368C135.735 109.365 136.535 108.565 137.537 107.968C138.561 107.371 139.692 107.072 140.929 107.072C142.423 107.072 143.671 107.509 144.673 108.384C145.697 109.259 146.433 110.4 146.881 111.808L135.937 116.032L135.489 114.944L145.505 111.04L145.185 111.488C144.823 110.635 144.268 109.899 143.521 109.28C142.796 108.661 141.9 108.352 140.833 108.352C139.873 108.352 139.009 108.587 138.241 109.056C137.473 109.525 136.855 110.155 136.385 110.944C135.937 111.733 135.713 112.629 135.713 113.632C135.713 114.571 135.927 115.445 136.353 116.256C136.801 117.067 137.42 117.717 138.209 118.208C138.999 118.699 139.905 118.944 140.929 118.944C141.612 118.944 142.263 118.816 142.881 118.56C143.521 118.304 144.087 117.973 144.577 117.568L145.345 118.656C144.748 119.125 144.055 119.509 143.265 119.808C142.497 120.107 141.708 120.256 140.897 120.256ZM153.995 120.256C153.27 120.256 152.512 120.128 151.723 119.872C150.934 119.595 150.294 119.157 149.803 118.56L150.507 117.568C150.934 118.016 151.435 118.379 152.011 118.656C152.608 118.912 153.238 119.04 153.899 119.04C154.39 119.04 154.848 118.976 155.275 118.848C155.723 118.699 156.086 118.453 156.363 118.112C156.64 117.771 156.779 117.312 156.779 116.736C156.779 116.139 156.608 115.68 156.267 115.36C155.947 115.04 155.531 114.784 155.019 114.592C154.528 114.379 154.006 114.187 153.451 114.016C152.534 113.717 151.776 113.312 151.179 112.8C150.603 112.288 150.315 111.563 150.315 110.624C150.315 109.941 150.475 109.344 150.795 108.832C151.136 108.32 151.595 107.925 152.171 107.648C152.747 107.349 153.398 107.2 154.123 107.2C154.784 107.2 155.435 107.307 156.075 107.52C156.736 107.733 157.334 108.096 157.867 108.608L157.195 109.664C156.854 109.195 156.395 108.875 155.819 108.704C155.264 108.533 154.774 108.437 154.347 108.416C153.984 108.416 153.6 108.491 153.195 108.64C152.811 108.789 152.48 109.013 152.203 109.312C151.947 109.589 151.819 109.963 151.819 110.432C151.819 110.923 151.958 111.328 152.235 111.648C152.512 111.947 152.864 112.192 153.291 112.384C153.739 112.576 154.198 112.757 154.667 112.928C155.286 113.12 155.862 113.355 156.395 113.632C156.95 113.888 157.398 114.24 157.739 114.688C158.102 115.115 158.283 115.691 158.283 116.416C158.283 117.141 158.123 117.803 157.803 118.4C157.483 118.976 157.003 119.435 156.363 119.776C155.744 120.096 154.955 120.256 153.995 120.256ZM173.413 97.28H174.981V120H173.413V97.28ZM182.769 107.488L182.929 111.424L182.737 110.656C183.1 109.568 183.783 108.715 184.785 108.096C185.809 107.456 186.94 107.136 188.177 107.136C189.351 107.136 190.3 107.488 191.025 108.192C191.751 108.875 192.124 109.771 192.145 110.88V120H190.609V111.296C190.588 110.485 190.332 109.813 189.841 109.28C189.351 108.747 188.636 108.469 187.697 108.448C186.865 108.448 186.087 108.651 185.361 109.056C184.636 109.461 184.049 110.027 183.601 110.752C183.175 111.477 182.961 112.32 182.961 113.28V120H181.457V107.488H182.769ZM199.08 101.984H200.616V107.648H204.488V108.864H200.616V120H199.08V108.864H196.424V107.648H199.08V101.984ZM213.679 120.256C212.377 120.256 211.225 119.968 210.223 119.392C209.22 118.816 208.431 118.037 207.855 117.056C207.3 116.053 207.023 114.933 207.023 113.696C207.023 112.48 207.321 111.371 207.919 110.368C208.516 109.365 209.316 108.565 210.319 107.968C211.343 107.371 212.473 107.072 213.711 107.072C215.204 107.072 216.452 107.509 217.455 108.384C218.479 109.259 219.215 110.4 219.663 111.808L208.719 116.032L208.271 114.944L218.287 111.04L217.967 111.488C217.604 110.635 217.049 109.899 216.303 109.28C215.577 108.661 214.681 108.352 213.615 108.352C212.655 108.352 211.791 108.587 211.023 109.056C210.255 109.525 209.636 110.155 209.167 110.944C208.719 111.733 208.495 112.629 208.495 113.632C208.495 114.571 208.708 115.445 209.135 116.256C209.583 117.067 210.201 117.717 210.991 118.208C211.78 118.699 212.687 118.944 213.711 118.944C214.393 118.944 215.044 118.816 215.663 118.56C216.303 118.304 216.868 117.973 217.359 117.568L218.127 118.656C217.529 119.125 216.836 119.509 216.047 119.808C215.279 120.107 214.489 120.256 213.679 120.256ZM229.4 126.112C228.696 126.112 228.024 126.027 227.384 125.856C226.744 125.707 226.115 125.44 225.496 125.056C224.878 124.672 224.238 124.171 223.576 123.552L224.472 122.528C225.39 123.403 226.243 123.989 227.032 124.288C227.822 124.608 228.59 124.768 229.336 124.768C230.638 124.768 231.672 124.555 232.44 124.128C233.208 123.723 233.763 123.168 234.104 122.464C234.446 121.781 234.627 121.013 234.648 120.16L234.68 116.096L235.032 116.48C234.606 117.589 233.838 118.496 232.728 119.2C231.64 119.904 230.403 120.256 229.016 120.256C227.843 120.256 226.766 119.968 225.784 119.392C224.824 118.795 224.056 118.005 223.48 117.024C222.904 116.021 222.616 114.912 222.616 113.696C222.616 112.395 222.915 111.253 223.512 110.272C224.11 109.291 224.92 108.523 225.944 107.968C226.968 107.392 228.099 107.104 229.336 107.104C230.488 107.104 231.576 107.403 232.6 108C233.646 108.597 234.403 109.387 234.872 110.368L234.68 111.072L234.84 107.488H236.184V120.192C236.184 121.216 235.95 122.176 235.48 123.072C235.032 123.989 234.307 124.725 233.304 125.28C232.323 125.835 231.022 126.112 229.4 126.112ZM224.12 113.664C224.12 114.645 224.355 115.541 224.824 116.352C225.294 117.141 225.923 117.781 226.712 118.272C227.523 118.741 228.419 118.976 229.4 118.976C230.339 118.976 231.192 118.773 231.96 118.368C232.728 117.941 233.358 117.376 233.848 116.672C234.339 115.968 234.616 115.211 234.68 114.4V112.544C234.51 111.733 234.168 111.019 233.656 110.4C233.166 109.781 232.547 109.291 231.8 108.928C231.075 108.565 230.275 108.384 229.4 108.384C228.419 108.384 227.523 108.608 226.712 109.056C225.923 109.504 225.294 110.123 224.824 110.912C224.355 111.701 224.12 112.619 224.12 113.664ZM243.207 107.488L243.367 111.328L243.175 110.848C243.452 110.08 243.89 109.419 244.487 108.864C245.084 108.309 245.746 107.883 246.471 107.584C247.218 107.285 247.932 107.136 248.615 107.136L248.551 108.608C247.591 108.608 246.716 108.821 245.927 109.248C245.159 109.675 244.54 110.251 244.071 110.976C243.623 111.68 243.399 112.48 243.399 113.376V120H241.895V107.488H243.207ZM257.86 120.256C256.665 120.256 255.577 119.989 254.596 119.456C253.636 118.901 252.868 118.133 252.292 117.152C251.737 116.171 251.46 115.029 251.46 113.728C251.46 112.341 251.759 111.157 252.356 110.176C252.953 109.173 253.764 108.416 254.788 107.904C255.812 107.371 256.975 107.104 258.276 107.104C259.385 107.104 260.431 107.435 261.412 108.096C262.415 108.757 263.129 109.589 263.556 110.592L263.332 111.04L263.524 107.488H264.868V120H263.364V116.128L263.684 116.704C263.535 117.131 263.279 117.557 262.916 117.984C262.553 118.389 262.105 118.773 261.572 119.136C261.06 119.477 260.484 119.755 259.844 119.968C259.225 120.16 258.564 120.256 257.86 120.256ZM258.18 118.976C259.119 118.976 259.961 118.784 260.708 118.4C261.476 117.995 262.095 117.44 262.564 116.736C263.033 116.032 263.3 115.221 263.364 114.304V112.512C263.193 111.723 262.852 111.019 262.34 110.4C261.849 109.781 261.241 109.291 260.516 108.928C259.791 108.565 259.001 108.384 258.148 108.384C257.209 108.384 256.345 108.608 255.556 109.056C254.767 109.483 254.137 110.091 253.668 110.88C253.199 111.669 252.964 112.597 252.964 113.664C252.964 114.645 253.199 115.541 253.668 116.352C254.137 117.141 254.767 117.781 255.556 118.272C256.367 118.741 257.241 118.976 258.18 118.976ZM275.671 120.256C274.498 120.256 273.431 119.979 272.471 119.424C271.511 118.848 270.743 118.059 270.167 117.056C269.612 116.053 269.335 114.923 269.335 113.664C269.335 112.32 269.623 111.157 270.199 110.176C270.775 109.195 271.554 108.437 272.535 107.904C273.538 107.371 274.636 107.104 275.831 107.104C277.026 107.104 278.156 107.413 279.223 108.032C280.311 108.651 281.1 109.461 281.591 110.464L281.335 111.168V95.68H282.839V120H281.303V116.16L281.623 116.864C281.09 117.867 280.29 118.688 279.223 119.328C278.156 119.947 276.972 120.256 275.671 120.256ZM276.055 118.944C277.015 118.944 277.879 118.741 278.647 118.336C279.415 117.909 280.034 117.344 280.503 116.64C280.972 115.915 281.239 115.104 281.303 114.208V112.608C281.154 111.797 280.823 111.072 280.311 110.432C279.799 109.792 279.18 109.291 278.455 108.928C277.73 108.544 276.93 108.352 276.055 108.352C275.095 108.352 274.22 108.576 273.431 109.024C272.642 109.472 272.012 110.091 271.543 110.88C271.074 111.669 270.839 112.587 270.839 113.632C270.839 114.613 271.074 115.509 271.543 116.32C272.012 117.109 272.642 117.749 273.431 118.24C274.242 118.709 275.116 118.944 276.055 118.944ZM293.704 120.256C292.509 120.256 291.421 119.989 290.44 119.456C289.48 118.901 288.712 118.133 288.136 117.152C287.581 116.171 287.304 115.029 287.304 113.728C287.304 112.341 287.603 111.157 288.2 110.176C288.797 109.173 289.608 108.416 290.632 107.904C291.656 107.371 292.819 107.104 294.12 107.104C295.229 107.104 296.275 107.435 297.256 108.096C298.259 108.757 298.973 109.589 299.4 110.592L299.176 111.04L299.368 107.488H300.712V120H299.208V116.128L299.528 116.704C299.379 117.131 299.123 117.557 298.76 117.984C298.397 118.389 297.949 118.773 297.416 119.136C296.904 119.477 296.328 119.755 295.688 119.968C295.069 120.16 294.408 120.256 293.704 120.256ZM294.024 118.976C294.963 118.976 295.805 118.784 296.552 118.4C297.32 117.995 297.939 117.44 298.408 116.736C298.877 116.032 299.144 115.221 299.208 114.304V112.512C299.037 111.723 298.696 111.019 298.184 110.4C297.693 109.781 297.085 109.291 296.36 108.928C295.635 108.565 294.845 108.384 293.992 108.384C293.053 108.384 292.189 108.608 291.4 109.056C290.611 109.483 289.981 110.091 289.512 110.88C289.043 111.669 288.808 112.597 288.808 113.664C288.808 114.645 289.043 115.541 289.512 116.352C289.981 117.141 290.611 117.781 291.4 118.272C292.211 118.741 293.085 118.976 294.024 118.976ZM309.339 120.256C308.614 120.256 307.856 120.128 307.067 119.872C306.278 119.595 305.638 119.157 305.147 118.56L305.851 117.568C306.278 118.016 306.779 118.379 307.355 118.656C307.952 118.912 308.582 119.04 309.243 119.04C309.734 119.04 310.192 118.976 310.619 118.848C311.067 118.699 311.43 118.453 311.707 118.112C311.984 117.771 312.123 117.312 312.123 116.736C312.123 116.139 311.952 115.68 311.611 115.36C311.291 115.04 310.875 114.784 310.363 114.592C309.872 114.379 309.35 114.187 308.795 114.016C307.878 113.717 307.12 113.312 306.523 112.8C305.947 112.288 305.659 111.563 305.659 110.624C305.659 109.941 305.819 109.344 306.139 108.832C306.48 108.32 306.939 107.925 307.515 107.648C308.091 107.349 308.742 107.2 309.467 107.2C310.128 107.2 310.779 107.307 311.419 107.52C312.08 107.733 312.678 108.096 313.211 108.608L312.539 109.664C312.198 109.195 311.739 108.875 311.163 108.704C310.608 108.533 310.118 108.437 309.691 108.416C309.328 108.416 308.944 108.491 308.539 108.64C308.155 108.789 307.824 109.013 307.547 109.312C307.291 109.589 307.163 109.963 307.163 110.432C307.163 110.923 307.302 111.328 307.579 111.648C307.856 111.947 308.208 112.192 308.635 112.384C309.083 112.576 309.542 112.757 310.011 112.928C310.63 113.12 311.206 113.355 311.739 113.632C312.294 113.888 312.742 114.24 313.083 114.688C313.446 115.115 313.627 115.691 313.627 116.416C313.627 117.141 313.467 117.803 313.147 118.4C312.827 118.976 312.347 119.435 311.707 119.776C311.088 120.096 310.299 120.256 309.339 120.256ZM333.109 120.256C331.935 120.256 330.869 119.979 329.909 119.424C328.949 118.848 328.181 118.059 327.605 117.056C327.05 116.053 326.773 114.923 326.773 113.664C326.773 112.32 327.061 111.157 327.637 110.176C328.213 109.195 328.991 108.437 329.973 107.904C330.975 107.371 332.074 107.104 333.269 107.104C334.463 107.104 335.594 107.413 336.661 108.032C337.749 108.651 338.538 109.461 339.029 110.464L338.773 111.168V95.68H340.277V120H338.741V116.16L339.061 116.864C338.527 117.867 337.727 118.688 336.661 119.328C335.594 119.947 334.41 120.256 333.109 120.256ZM333.493 118.944C334.453 118.944 335.317 118.741 336.085 118.336C336.853 117.909 337.471 117.344 337.941 116.64C338.41 115.915 338.677 115.104 338.741 114.208V112.608C338.591 111.797 338.261 111.072 337.749 110.432C337.237 109.792 336.618 109.291 335.893 108.928C335.167 108.544 334.367 108.352 333.493 108.352C332.533 108.352 331.658 108.576 330.869 109.024C330.079 109.472 329.45 110.091 328.981 110.88C328.511 111.669 328.277 112.587 328.277 113.632C328.277 114.613 328.511 115.509 328.981 116.32C329.45 117.109 330.079 117.749 330.869 118.24C331.679 118.709 332.554 118.944 333.493 118.944ZM351.397 120.256C350.096 120.256 348.944 119.968 347.941 119.392C346.939 118.816 346.149 118.037 345.573 117.056C345.019 116.053 344.741 114.933 344.741 113.696C344.741 112.48 345.04 111.371 345.637 110.368C346.235 109.365 347.035 108.565 348.037 107.968C349.061 107.371 350.192 107.072 351.429 107.072C352.923 107.072 354.171 107.509 355.173 108.384C356.197 109.259 356.933 110.4 357.381 111.808L346.437 116.032L345.989 114.944L356.005 111.04L355.685 111.488C355.323 110.635 354.768 109.899 354.021 109.28C353.296 108.661 352.4 108.352 351.333 108.352C350.373 108.352 349.509 108.587 348.741 109.056C347.973 109.525 347.355 110.155 346.885 110.944C346.437 111.733 346.213 112.629 346.213 113.632C346.213 114.571 346.427 115.445 346.853 116.256C347.301 117.067 347.92 117.717 348.709 118.208C349.499 118.699 350.405 118.944 351.429 118.944C352.112 118.944 352.763 118.816 353.381 118.56C354.021 118.304 354.587 117.973 355.077 117.568L355.845 118.656C355.248 119.125 354.555 119.509 353.765 119.808C352.997 120.107 352.208 120.256 351.397 120.256ZM11.8191 129.28H25.8351V130.784H13.3871V139.808H24.5871V141.312H13.3871V150.496H26.2831V152H11.8191V129.28ZM32.8006 139.488L32.9606 143.424L32.7686 142.656C33.1313 141.568 33.814 140.715 34.8166 140.096C35.8406 139.456 36.9713 139.136 38.2086 139.136C39.382 139.136 40.3313 139.488 41.0566 140.192C41.782 140.875 42.1553 141.771 42.1766 142.88V152H40.6406V143.296C40.6193 142.485 40.3633 141.813 39.8726 141.28C39.382 140.747 38.6673 140.469 37.7286 140.448C36.8966 140.448 36.118 140.651 35.3926 141.056C34.6673 141.461 34.0806 142.027 33.6326 142.752C33.206 143.477 32.9926 144.32 32.9926 145.28V152H31.4886V139.488H32.8006ZM50.8076 152.256C50.0823 152.256 49.325 152.128 48.5356 151.872C47.7463 151.595 47.1063 151.157 46.6156 150.56L47.3196 149.568C47.7463 150.016 48.2476 150.379 48.8236 150.656C49.421 150.912 50.0503 151.04 50.7116 151.04C51.2023 151.04 51.661 150.976 52.0876 150.848C52.5356 150.699 52.8983 150.453 53.1756 150.112C53.453 149.771 53.5916 149.312 53.5916 148.736C53.5916 148.139 53.421 147.68 53.0796 147.36C52.7596 147.04 52.3436 146.784 51.8316 146.592C51.341 146.379 50.8183 146.187 50.2636 146.016C49.3463 145.717 48.589 145.312 47.9916 144.8C47.4156 144.288 47.1276 143.563 47.1276 142.624C47.1276 141.941 47.2876 141.344 47.6076 140.832C47.949 140.32 48.4076 139.925 48.9836 139.648C49.5596 139.349 50.2103 139.2 50.9356 139.2C51.597 139.2 52.2476 139.307 52.8876 139.52C53.549 139.733 54.1463 140.096 54.6796 140.608L54.0076 141.664C53.6663 141.195 53.2076 140.875 52.6316 140.704C52.077 140.533 51.5863 140.437 51.1596 140.416C50.797 140.416 50.413 140.491 50.0076 140.64C49.6236 140.789 49.293 141.013 49.0156 141.312C48.7596 141.589 48.6316 141.963 48.6316 142.432C48.6316 142.923 48.7703 143.328 49.0476 143.648C49.325 143.947 49.677 144.192 50.1036 144.384C50.5516 144.576 51.0103 144.757 51.4796 144.928C52.0983 145.12 52.6743 145.355 53.2076 145.632C53.7623 145.888 54.2103 146.24 54.5516 146.688C54.9143 147.115 55.0956 147.691 55.0956 148.416C55.0956 149.141 54.9356 149.803 54.6156 150.4C54.2956 150.976 53.8156 151.435 53.1756 151.776C52.557 152.096 51.7676 152.256 50.8076 152.256ZM59.6449 139.488H61.1489V152H59.6449V139.488ZM59.3249 134.88C59.3249 134.581 59.4422 134.336 59.6769 134.144C59.9115 133.931 60.1675 133.824 60.4449 133.824C60.7435 133.824 60.9995 133.931 61.2129 134.144C61.4262 134.336 61.5329 134.581 61.5329 134.88C61.5329 135.2 61.4262 135.467 61.2129 135.68C60.9995 135.872 60.7435 135.968 60.4449 135.968C60.1675 135.968 59.9115 135.861 59.6769 135.648C59.4422 135.435 59.3249 135.179 59.3249 134.88ZM68.1444 139.488L68.3044 143.424L68.1124 142.656C68.475 141.568 69.1577 140.715 70.1604 140.096C71.1844 139.456 72.315 139.136 73.5524 139.136C74.7257 139.136 75.675 139.488 76.4004 140.192C77.1257 140.875 77.499 141.771 77.5204 142.88V152H75.9844V143.296C75.963 142.485 75.707 141.813 75.2164 141.28C74.7257 140.747 74.011 140.469 73.0724 140.448C72.2404 140.448 71.4617 140.651 70.7364 141.056C70.011 141.461 69.4244 142.027 68.9764 142.752C68.5497 143.477 68.3364 144.32 68.3364 145.28V152H66.8324V139.488H68.1444ZM81.9914 145.664C81.9914 144.448 82.2794 143.339 82.8554 142.336C83.4527 141.333 84.2527 140.544 85.2554 139.968C86.2794 139.371 87.4207 139.072 88.6794 139.072C89.9594 139.072 91.1007 139.371 92.1034 139.968C93.106 140.544 93.8954 141.333 94.4714 142.336C95.0474 143.339 95.3354 144.448 95.3354 145.664C95.3354 146.88 95.0474 147.989 94.4714 148.992C93.8954 149.995 93.0954 150.795 92.0714 151.392C91.0687 151.968 89.938 152.256 88.6794 152.256C87.3994 152.256 86.258 151.979 85.2554 151.424C84.2527 150.848 83.4527 150.069 82.8554 149.088C82.2794 148.085 81.9914 146.944 81.9914 145.664ZM83.4954 145.696C83.4954 146.677 83.7194 147.573 84.1674 148.384C84.6367 149.173 85.2554 149.803 86.0234 150.272C86.8127 150.741 87.6874 150.976 88.6474 150.976C89.6074 150.976 90.4714 150.741 91.2394 150.272C92.0287 149.803 92.6474 149.173 93.0954 148.384C93.5647 147.573 93.7994 146.677 93.7994 145.696C93.7994 144.715 93.5647 143.829 93.0954 143.04C92.6474 142.229 92.0287 141.589 91.2394 141.12C90.4714 140.629 89.6074 140.384 88.6474 140.384C87.666 140.384 86.7807 140.64 85.9914 141.152C85.2234 141.643 84.6154 142.293 84.1674 143.104C83.7194 143.915 83.4954 144.779 83.4954 145.696ZM121.742 131.84C121.08 131.52 120.27 131.221 119.31 130.944C118.35 130.667 117.39 130.528 116.43 130.528C114.936 130.528 113.742 130.901 112.846 131.648C111.95 132.395 111.502 133.333 111.502 134.464C111.502 135.317 111.758 136.032 112.27 136.608C112.782 137.163 113.454 137.643 114.286 138.048C115.118 138.432 116.003 138.805 116.942 139.168C117.688 139.445 118.424 139.755 119.15 140.096C119.896 140.437 120.568 140.853 121.166 141.344C121.763 141.835 122.232 142.443 122.574 143.168C122.936 143.893 123.118 144.789 123.118 145.856C123.118 147.115 122.819 148.235 122.222 149.216C121.624 150.176 120.792 150.923 119.726 151.456C118.659 151.989 117.422 152.256 116.014 152.256C114.883 152.256 113.848 152.117 112.91 151.84C111.992 151.563 111.182 151.243 110.478 150.88C109.795 150.496 109.251 150.176 108.846 149.92L109.582 148.64C110.051 148.981 110.616 149.323 111.278 149.664C111.96 150.005 112.696 150.293 113.486 150.528C114.275 150.763 115.064 150.88 115.854 150.88C116.771 150.88 117.656 150.699 118.51 150.336C119.384 149.973 120.099 149.429 120.654 148.704C121.23 147.957 121.518 147.019 121.518 145.888C121.518 144.8 121.251 143.925 120.718 143.264C120.184 142.581 119.502 142.027 118.67 141.6C117.838 141.173 116.952 140.789 116.014 140.448C115.288 140.171 114.563 139.883 113.838 139.584C113.112 139.264 112.451 138.891 111.854 138.464C111.256 138.016 110.776 137.483 110.414 136.864C110.072 136.245 109.902 135.499 109.902 134.624C109.902 133.536 110.179 132.587 110.734 131.776C111.288 130.965 112.035 130.336 112.974 129.888C113.934 129.419 115.022 129.173 116.238 129.152C117.304 129.152 118.382 129.291 119.47 129.568C120.579 129.845 121.539 130.197 122.35 130.624L121.742 131.84ZM132.143 152.352C130.97 152.352 130.031 152.011 129.327 151.328C128.623 150.624 128.25 149.717 128.207 148.608V139.488H129.711V148.16C129.754 148.971 130.01 149.643 130.479 150.176C130.97 150.709 131.695 150.997 132.655 151.04C133.466 151.04 134.223 150.827 134.927 150.4C135.631 149.973 136.197 149.397 136.623 148.672C137.071 147.925 137.295 147.083 137.295 146.144V139.488H138.799V152H137.455L137.295 148.064L137.519 148.928C137.306 149.568 136.922 150.155 136.367 150.688C135.834 151.2 135.194 151.605 134.447 151.904C133.722 152.203 132.954 152.352 132.143 152.352ZM151.401 152.256C150.206 152.256 149.086 151.947 148.041 151.328C146.995 150.688 146.227 149.867 145.737 148.864L145.993 148.32V158.016H144.489V139.392H145.833L145.993 143.488L145.705 142.56C146.259 141.557 147.07 140.736 148.137 140.096C149.203 139.435 150.366 139.104 151.625 139.104C152.819 139.104 153.897 139.392 154.857 139.968C155.817 140.544 156.574 141.333 157.129 142.336C157.705 143.317 157.993 144.448 157.993 145.728C157.993 146.987 157.694 148.117 157.097 149.12C156.521 150.101 155.731 150.869 154.729 151.424C153.747 151.979 152.638 152.256 151.401 152.256ZM151.145 151.008C152.126 151.008 153.011 150.773 153.801 150.304C154.611 149.835 155.251 149.205 155.721 148.416C156.211 147.605 156.457 146.709 156.457 145.728C156.457 144.725 156.222 143.829 155.753 143.04C155.283 142.229 154.654 141.589 153.865 141.12C153.097 140.651 152.222 140.416 151.241 140.416C150.302 140.416 149.449 140.629 148.681 141.056C147.913 141.483 147.294 142.059 146.825 142.784C146.355 143.509 146.078 144.331 145.993 145.248V146.272C146.057 147.147 146.323 147.947 146.793 148.672C147.283 149.397 147.902 149.973 148.649 150.4C149.417 150.805 150.249 151.008 151.145 151.008ZM167.897 152.256C166.596 152.256 165.444 151.968 164.441 151.392C163.439 150.816 162.649 150.037 162.073 149.056C161.519 148.053 161.241 146.933 161.241 145.696C161.241 144.48 161.54 143.371 162.137 142.368C162.735 141.365 163.535 140.565 164.537 139.968C165.561 139.371 166.692 139.072 167.929 139.072C169.423 139.072 170.671 139.509 171.673 140.384C172.697 141.259 173.433 142.4 173.881 143.808L162.937 148.032L162.489 146.944L172.505 143.04L172.185 143.488C171.823 142.635 171.268 141.899 170.521 141.28C169.796 140.661 168.9 140.352 167.833 140.352C166.873 140.352 166.009 140.587 165.241 141.056C164.473 141.525 163.855 142.155 163.385 142.944C162.937 143.733 162.713 144.629 162.713 145.632C162.713 146.571 162.927 147.445 163.353 148.256C163.801 149.067 164.42 149.717 165.209 150.208C165.999 150.699 166.905 150.944 167.929 150.944C168.612 150.944 169.263 150.816 169.881 150.56C170.521 150.304 171.087 149.973 171.577 149.568L172.345 150.656C171.748 151.125 171.055 151.509 170.265 151.808C169.497 152.107 168.708 152.256 167.897 152.256ZM179.363 139.488L179.523 143.328L179.331 142.848C179.608 142.08 180.046 141.419 180.643 140.864C181.24 140.309 181.902 139.883 182.627 139.584C183.374 139.285 184.088 139.136 184.771 139.136L184.707 140.608C183.747 140.608 182.872 140.821 182.083 141.248C181.315 141.675 180.696 142.251 180.227 142.976C179.779 143.68 179.555 144.48 179.555 145.376V152H178.051V139.488H179.363ZM188.989 139.488H190.493V152H188.989V139.488ZM188.669 134.88C188.669 134.581 188.786 134.336 189.021 134.144C189.255 133.931 189.511 133.824 189.789 133.824C190.087 133.824 190.343 133.931 190.557 134.144C190.77 134.336 190.877 134.581 190.877 134.88C190.877 135.2 190.77 135.467 190.557 135.68C190.343 135.872 190.087 135.968 189.789 135.968C189.511 135.968 189.255 135.861 189.021 135.648C188.786 135.435 188.669 135.179 188.669 134.88ZM194.96 145.664C194.96 144.448 195.248 143.339 195.824 142.336C196.421 141.333 197.221 140.544 198.224 139.968C199.248 139.371 200.389 139.072 201.648 139.072C202.928 139.072 204.069 139.371 205.072 139.968C206.075 140.544 206.864 141.333 207.44 142.336C208.016 143.339 208.304 144.448 208.304 145.664C208.304 146.88 208.016 147.989 207.44 148.992C206.864 149.995 206.064 150.795 205.04 151.392C204.037 151.968 202.907 152.256 201.648 152.256C200.368 152.256 199.227 151.979 198.224 151.424C197.221 150.848 196.421 150.069 195.824 149.088C195.248 148.085 194.96 146.944 194.96 145.664ZM196.464 145.696C196.464 146.677 196.688 147.573 197.136 148.384C197.605 149.173 198.224 149.803 198.992 150.272C199.781 150.741 200.656 150.976 201.616 150.976C202.576 150.976 203.44 150.741 204.208 150.272C204.997 149.803 205.616 149.173 206.064 148.384C206.533 147.573 206.768 146.677 206.768 145.696C206.768 144.715 206.533 143.829 206.064 143.04C205.616 142.229 204.997 141.589 204.208 141.12C203.44 140.629 202.576 140.384 201.616 140.384C200.635 140.384 199.749 140.64 198.96 141.152C198.192 141.643 197.584 142.293 197.136 143.104C196.688 143.915 196.464 144.779 196.464 145.696ZM214.082 139.488L214.242 143.328L214.05 142.848C214.327 142.08 214.765 141.419 215.362 140.864C215.959 140.309 216.621 139.883 217.346 139.584C218.093 139.285 218.807 139.136 219.49 139.136L219.426 140.608C218.466 140.608 217.591 140.821 216.802 141.248C216.034 141.675 215.415 142.251 214.946 142.976C214.498 143.68 214.274 144.48 214.274 145.376V152H212.77V139.488H214.082ZM232.304 152L241.904 128.288H242.032L251.632 152H249.872L241.52 130.784L242.608 130.176L233.872 152H232.304ZM236.944 143.008H247.024L247.472 144.48H236.56L236.944 143.008ZM259.058 152.256C258.332 152.256 257.575 152.128 256.786 151.872C255.996 151.595 255.356 151.157 254.866 150.56L255.57 149.568C255.996 150.016 256.498 150.379 257.074 150.656C257.671 150.912 258.3 151.04 258.962 151.04C259.452 151.04 259.911 150.976 260.338 150.848C260.786 150.699 261.148 150.453 261.426 150.112C261.703 149.771 261.842 149.312 261.842 148.736C261.842 148.139 261.671 147.68 261.33 147.36C261.01 147.04 260.594 146.784 260.082 146.592C259.591 146.379 259.068 146.187 258.514 146.016C257.596 145.717 256.839 145.312 256.242 144.8C255.666 144.288 255.378 143.563 255.378 142.624C255.378 141.941 255.538 141.344 255.858 140.832C256.199 140.32 256.658 139.925 257.234 139.648C257.81 139.349 258.46 139.2 259.186 139.2C259.847 139.2 260.498 139.307 261.138 139.52C261.799 139.733 262.396 140.096 262.93 140.608L262.258 141.664C261.916 141.195 261.458 140.875 260.882 140.704C260.327 140.533 259.836 140.437 259.41 140.416C259.047 140.416 258.663 140.491 258.258 140.64C257.874 140.789 257.543 141.013 257.266 141.312C257.01 141.589 256.882 141.963 256.882 142.432C256.882 142.923 257.02 143.328 257.298 143.648C257.575 143.947 257.927 144.192 258.354 144.384C258.802 144.576 259.26 144.757 259.73 144.928C260.348 145.12 260.924 145.355 261.458 145.632C262.012 145.888 262.46 146.24 262.802 146.688C263.164 147.115 263.346 147.691 263.346 148.416C263.346 149.141 263.186 149.803 262.866 150.4C262.546 150.976 262.066 151.435 261.426 151.776C260.807 152.096 260.018 152.256 259.058 152.256ZM270.839 152.256C270.114 152.256 269.356 152.128 268.567 151.872C267.778 151.595 267.138 151.157 266.647 150.56L267.351 149.568C267.778 150.016 268.279 150.379 268.855 150.656C269.452 150.912 270.082 151.04 270.743 151.04C271.234 151.04 271.692 150.976 272.119 150.848C272.567 150.699 272.93 150.453 273.207 150.112C273.484 149.771 273.623 149.312 273.623 148.736C273.623 148.139 273.452 147.68 273.111 147.36C272.791 147.04 272.375 146.784 271.863 146.592C271.372 146.379 270.85 146.187 270.295 146.016C269.378 145.717 268.62 145.312 268.023 144.8C267.447 144.288 267.159 143.563 267.159 142.624C267.159 141.941 267.319 141.344 267.639 140.832C267.98 140.32 268.439 139.925 269.015 139.648C269.591 139.349 270.242 139.2 270.967 139.2C271.628 139.2 272.279 139.307 272.919 139.52C273.58 139.733 274.178 140.096 274.711 140.608L274.039 141.664C273.698 141.195 273.239 140.875 272.663 140.704C272.108 140.533 271.618 140.437 271.191 140.416C270.828 140.416 270.444 140.491 270.039 140.64C269.655 140.789 269.324 141.013 269.047 141.312C268.791 141.589 268.663 141.963 268.663 142.432C268.663 142.923 268.802 143.328 269.079 143.648C269.356 143.947 269.708 144.192 270.135 144.384C270.583 144.576 271.042 144.757 271.511 144.928C272.13 145.12 272.706 145.355 273.239 145.632C273.794 145.888 274.242 146.24 274.583 146.688C274.946 147.115 275.127 147.691 275.127 148.416C275.127 149.141 274.967 149.803 274.647 150.4C274.327 150.976 273.847 151.435 273.207 151.776C272.588 152.096 271.799 152.256 270.839 152.256ZM283.612 152.352C282.439 152.352 281.5 152.011 280.796 151.328C280.092 150.624 279.719 149.717 279.676 148.608V139.488H281.18V148.16C281.223 148.971 281.479 149.643 281.948 150.176C282.439 150.709 283.164 150.997 284.124 151.04C284.935 151.04 285.692 150.827 286.396 150.4C287.1 149.973 287.665 149.397 288.092 148.672C288.54 147.925 288.764 147.083 288.764 146.144V139.488H290.268V152H288.924L288.764 148.064L288.988 148.928C288.775 149.568 288.391 150.155 287.836 150.688C287.303 151.2 286.663 151.605 285.916 151.904C285.191 152.203 284.423 152.352 283.612 152.352ZM297.269 139.488L297.429 143.424L297.237 142.656C297.6 141.568 298.283 140.715 299.285 140.096C300.309 139.456 301.44 139.136 302.677 139.136C303.851 139.136 304.8 139.488 305.525 140.192C306.251 140.875 306.624 141.771 306.645 142.88V152H305.109V143.296C305.088 142.485 304.832 141.813 304.341 141.28C303.851 140.747 303.136 140.469 302.197 140.448C301.365 140.448 300.587 140.651 299.861 141.056C299.136 141.461 298.549 142.027 298.101 142.752C297.675 143.477 297.461 144.32 297.461 145.28V152H295.957V139.488H297.269ZM321.996 150.784C321.42 151.253 320.77 151.616 320.044 151.872C319.319 152.128 318.562 152.256 317.772 152.256C316.492 152.256 315.351 151.979 314.348 151.424C313.346 150.848 312.556 150.069 311.98 149.088C311.404 148.107 311.116 146.987 311.116 145.728C311.116 144.469 311.415 143.349 312.012 142.368C312.61 141.387 313.399 140.619 314.38 140.064C315.383 139.488 316.471 139.2 317.644 139.2C318.519 139.2 319.33 139.328 320.076 139.584C320.823 139.84 321.474 140.203 322.028 140.672L321.228 141.696C320.78 141.333 320.258 141.035 319.66 140.8C319.063 140.565 318.423 140.448 317.74 140.448C316.802 140.448 315.938 140.683 315.148 141.152C314.38 141.621 313.762 142.261 313.292 143.072C312.844 143.861 312.62 144.747 312.62 145.728C312.62 146.688 312.844 147.573 313.292 148.384C313.762 149.173 314.391 149.803 315.18 150.272C315.991 150.741 316.887 150.976 317.868 150.976C318.508 150.976 319.106 150.88 319.66 150.688C320.215 150.475 320.716 150.197 321.164 149.856L321.996 150.784ZM313.932 157.344C314.167 157.579 314.476 157.771 314.86 157.92C315.266 158.091 315.735 158.176 316.268 158.176C317.015 158.176 317.634 158.016 318.124 157.696C318.636 157.397 318.892 156.971 318.892 156.416C318.892 155.925 318.7 155.499 318.316 155.136C317.932 154.773 317.314 154.592 316.46 154.592C316.119 154.592 315.724 154.635 315.276 154.72C314.828 154.827 314.476 154.933 314.22 155.04L313.74 154.24L315.98 151.744L317.132 151.968L314.988 154.592L314.444 154.24C314.679 154.091 315.02 153.963 315.468 153.856C315.916 153.771 316.343 153.728 316.748 153.728C317.836 153.707 318.69 153.92 319.308 154.368C319.927 154.837 320.236 155.509 320.236 156.384C320.236 157.003 320.066 157.515 319.724 157.92C319.383 158.325 318.924 158.624 318.348 158.816C317.772 159.008 317.132 159.104 316.428 159.104C315.767 159.104 315.17 159.008 314.636 158.816C314.124 158.624 313.708 158.389 313.388 158.112L313.932 157.344ZM331.36 152.256C330.165 152.256 329.077 151.989 328.096 151.456C327.136 150.901 326.368 150.133 325.792 149.152C325.237 148.171 324.96 147.029 324.96 145.728C324.96 144.341 325.259 143.157 325.856 142.176C326.453 141.173 327.264 140.416 328.288 139.904C329.312 139.371 330.475 139.104 331.776 139.104C332.885 139.104 333.931 139.435 334.912 140.096C335.915 140.757 336.629 141.589 337.056 142.592L336.832 143.04L337.024 139.488H338.368V152H336.864V148.128L337.184 148.704C337.035 149.131 336.779 149.557 336.416 149.984C336.053 150.389 335.605 150.773 335.072 151.136C334.56 151.477 333.984 151.755 333.344 151.968C332.725 152.16 332.064 152.256 331.36 152.256ZM331.68 150.976C332.619 150.976 333.461 150.784 334.208 150.4C334.976 149.995 335.595 149.44 336.064 148.736C336.533 148.032 336.8 147.221 336.864 146.304V144.512C336.693 143.723 336.352 143.019 335.84 142.4C335.349 141.781 334.741 141.291 334.016 140.928C333.291 140.565 332.501 140.384 331.648 140.384C330.709 140.384 329.845 140.608 329.056 141.056C328.267 141.483 327.637 142.091 327.168 142.88C326.699 143.669 326.464 144.597 326.464 145.664C326.464 146.645 326.699 147.541 327.168 148.352C327.637 149.141 328.267 149.781 329.056 150.272C329.867 150.741 330.741 150.976 331.68 150.976ZM334.848 137.344C334.208 137.344 333.685 137.195 333.28 136.896C332.896 136.576 332.533 136.235 332.192 135.872C331.915 135.595 331.627 135.339 331.328 135.104C331.051 134.848 330.72 134.72 330.336 134.72C330.08 134.72 329.824 134.816 329.568 135.008C329.333 135.179 329.131 135.467 328.96 135.872C328.789 136.256 328.693 136.789 328.672 137.472L327.712 137.44C327.691 136.608 327.797 135.904 328.032 135.328C328.288 134.731 328.619 134.283 329.024 133.984C329.429 133.685 329.888 133.536 330.4 133.536C330.976 133.536 331.456 133.696 331.84 134.016C332.224 134.315 332.576 134.635 332.896 134.976C333.173 135.296 333.461 135.584 333.76 135.84C334.059 136.096 334.411 136.224 334.816 136.224C335.243 136.224 335.595 136.011 335.872 135.584C336.171 135.157 336.341 134.432 336.384 133.408L337.344 133.44C337.365 134.293 337.259 135.019 337.024 135.616C336.811 136.192 336.512 136.629 336.128 136.928C335.744 137.205 335.317 137.344 334.848 137.344ZM342.835 145.664C342.835 144.448 343.123 143.339 343.699 142.336C344.296 141.333 345.096 140.544 346.099 139.968C347.123 139.371 348.264 139.072 349.523 139.072C350.803 139.072 351.944 139.371 352.947 139.968C353.95 140.544 354.739 141.333 355.315 142.336C355.891 143.339 356.179 144.448 356.179 145.664C356.179 146.88 355.891 147.989 355.315 148.992C354.739 149.995 353.939 150.795 352.915 151.392C351.912 151.968 350.782 152.256 349.523 152.256C348.243 152.256 347.102 151.979 346.099 151.424C345.096 150.848 344.296 150.069 343.699 149.088C343.123 148.085 342.835 146.944 342.835 145.664ZM344.339 145.696C344.339 146.677 344.563 147.573 345.011 148.384C345.48 149.173 346.099 149.803 346.867 150.272C347.656 150.741 348.531 150.976 349.491 150.976C350.451 150.976 351.315 150.741 352.083 150.272C352.872 149.803 353.491 149.173 353.939 148.384C354.408 147.573 354.643 146.677 354.643 145.696C354.643 144.715 354.408 143.829 353.939 143.04C353.491 142.229 352.872 141.589 352.083 141.12C351.315 140.629 350.451 140.384 349.491 140.384C348.51 140.384 347.624 140.64 346.835 141.152C346.067 141.643 345.459 142.293 345.011 143.104C344.563 143.915 344.339 144.779 344.339 145.696Z" fill="#2830E6"/>
<defs>
<linearGradient id="paint0_linear_130_5" x1="188.708" y1="24.8979" x2="287.657" y2="72.4456" gradientUnits="userSpaceOnUse">
<stop stop-color="#2830E6"/>
<stop offset="1" stop-color="#EF2020"/>
</linearGradient>
</defs>
</svg>
