<svg width="501" height="49" viewBox="0 0 501 49" fill="none" xmlns="http://www.w3.org/2000/svg">
<path d="M5.51 2.312H32.19V10.432H13.92V20.118H29.754V28.238H13.92V45H5.51V2.312ZM40.2873 2.312H48.6973V45H40.2873V2.312ZM59.7151 2.312H88.8311V10.432H68.1251V19.538H86.4531V27.658H68.1251V36.88H89.6431V45H59.7151V2.312ZM121.138 12.636C119.514 11.7467 117.851 11.012 116.15 10.432C114.487 9.852 112.921 9.562 111.452 9.562C109.635 9.562 108.204 9.92933 107.16 10.664C106.116 11.3987 105.594 12.5007 105.594 13.97C105.594 14.9753 105.981 15.884 106.754 16.696C107.566 17.4693 108.591 18.1653 109.828 18.784C111.104 19.4027 112.419 19.9633 113.772 20.466C115.009 20.93 116.227 21.4907 117.426 22.148C118.663 22.7667 119.765 23.5593 120.732 24.526C121.699 25.454 122.472 26.6333 123.052 28.064C123.632 29.456 123.922 31.1767 123.922 33.226C123.922 35.3913 123.361 37.402 122.24 39.258C121.119 41.114 119.475 42.622 117.31 43.782C115.145 44.9033 112.477 45.464 109.306 45.464C107.682 45.464 106.019 45.3093 104.318 45C102.655 44.652 101.012 44.1493 99.388 43.492C97.764 42.796 96.198 41.926 94.69 40.882L98.402 34.328C99.4073 35.0627 100.49 35.72 101.65 36.3C102.849 36.8413 104.047 37.2667 105.246 37.576C106.445 37.8853 107.547 38.04 108.552 38.04C109.557 38.04 110.563 37.9047 111.568 37.634C112.612 37.3247 113.463 36.822 114.12 36.126C114.816 35.43 115.164 34.4633 115.164 33.226C115.164 32.3753 114.874 31.602 114.294 30.906C113.753 30.21 112.999 29.572 112.032 28.992C111.104 28.412 110.079 27.9093 108.958 27.484C107.643 26.9813 106.29 26.4013 104.898 25.744C103.506 25.0867 102.191 24.294 100.954 23.366C99.7553 22.3993 98.7693 21.22 97.996 19.828C97.2613 18.3973 96.894 16.6573 96.894 14.608C96.894 12.1333 97.4353 9.98733 98.518 8.17C99.6393 6.35266 101.205 4.922 103.216 3.878C105.227 2.79533 107.547 2.196 110.176 2.08C113.617 2.08 116.401 2.486 118.528 3.298C120.693 4.11 122.627 5.07667 124.328 6.198L121.138 12.636ZM127.344 45L146.6 0.629997H147.064L166.32 45H156.576L144.28 13.796L150.37 9.62L135.638 45H127.344ZM140.51 29.572H153.328L156.286 36.648H137.9L140.51 29.572Z" fill="url(#paint0_linear_113_12)"/>
<path d="M203.712 1.96H213.264V3.088H204.888V10.12H212.304V11.224H204.888V19H203.712V1.96ZM219.258 19.192C218.362 19.192 217.546 18.992 216.81 18.592C216.09 18.176 215.514 17.6 215.082 16.864C214.666 16.128 214.458 15.272 214.458 14.296C214.458 13.256 214.682 12.368 215.13 11.632C215.578 10.88 216.186 10.312 216.954 9.928C217.722 9.528 218.594 9.328 219.57 9.328C220.402 9.328 221.186 9.576 221.922 10.072C222.674 10.568 223.21 11.192 223.53 11.944L223.362 12.28L223.506 9.616H224.514V19H223.386V16.096L223.626 16.528C223.514 16.848 223.322 17.168 223.05 17.488C222.778 17.792 222.442 18.08 222.042 18.352C221.658 18.608 221.226 18.816 220.746 18.976C220.282 19.12 219.786 19.192 219.258 19.192ZM219.498 18.232C220.202 18.232 220.834 18.088 221.394 17.8C221.97 17.496 222.434 17.08 222.786 16.552C223.138 16.024 223.338 15.416 223.386 14.728V13.384C223.258 12.792 223.002 12.264 222.618 11.8C222.25 11.336 221.794 10.968 221.25 10.696C220.706 10.424 220.114 10.288 219.474 10.288C218.77 10.288 218.122 10.456 217.53 10.792C216.938 11.112 216.466 11.568 216.114 12.16C215.762 12.752 215.586 13.448 215.586 14.248C215.586 14.984 215.762 15.656 216.114 16.264C216.466 16.856 216.938 17.336 217.53 17.704C218.138 18.056 218.794 18.232 219.498 18.232ZM236.025 18.088C235.593 18.44 235.105 18.712 234.561 18.904C234.017 19.096 233.449 19.192 232.857 19.192C231.897 19.192 231.041 18.984 230.289 18.568C229.537 18.136 228.945 17.552 228.513 16.816C228.081 16.08 227.865 15.24 227.865 14.296C227.865 13.352 228.089 12.512 228.537 11.776C228.985 11.04 229.577 10.464 230.313 10.048C231.065 9.616 231.881 9.4 232.761 9.4C233.417 9.4 234.025 9.496 234.585 9.688C235.145 9.88 235.633 10.152 236.049 10.504L235.449 11.272C235.113 11 234.721 10.776 234.273 10.6C233.825 10.424 233.345 10.336 232.833 10.336C232.129 10.336 231.481 10.512 230.889 10.864C230.313 11.216 229.849 11.696 229.497 12.304C229.161 12.896 228.993 13.56 228.993 14.296C228.993 15.016 229.161 15.68 229.497 16.288C229.849 16.88 230.321 17.352 230.913 17.704C231.521 18.056 232.193 18.232 232.929 18.232C233.409 18.232 233.857 18.16 234.273 18.016C234.689 17.856 235.065 17.648 235.401 17.392L236.025 18.088ZM242.111 19.264C241.231 19.264 240.527 19.008 239.999 18.496C239.471 17.968 239.191 17.288 239.159 16.456V9.616H240.287V16.12C240.319 16.728 240.511 17.232 240.863 17.632C241.231 18.032 241.775 18.248 242.495 18.28C243.103 18.28 243.671 18.12 244.199 17.8C244.727 17.48 245.151 17.048 245.471 16.504C245.807 15.944 245.975 15.312 245.975 14.608V9.616H247.103V19H246.095L245.975 16.048L246.143 16.696C245.983 17.176 245.695 17.616 245.279 18.016C244.879 18.4 244.399 18.704 243.839 18.928C243.295 19.152 242.719 19.264 242.111 19.264ZM251.37 0.759999H252.498V19H251.37V0.759999ZM260.601 19.192C259.721 19.192 258.921 18.984 258.201 18.568C257.481 18.136 256.905 17.544 256.473 16.792C256.057 16.04 255.849 15.192 255.849 14.248C255.849 13.24 256.065 12.368 256.497 11.632C256.929 10.896 257.513 10.328 258.249 9.928C259.001 9.528 259.825 9.328 260.721 9.328C261.617 9.328 262.465 9.56 263.265 10.024C264.081 10.488 264.673 11.096 265.041 11.848L264.849 12.376V0.759999H265.977V19H264.825V16.12L265.065 16.648C264.665 17.4 264.065 18.016 263.265 18.496C262.465 18.96 261.577 19.192 260.601 19.192ZM260.889 18.208C261.609 18.208 262.257 18.056 262.833 17.752C263.409 17.432 263.873 17.008 264.225 16.48C264.577 15.936 264.777 15.328 264.825 14.656V13.456C264.713 12.848 264.465 12.304 264.081 11.824C263.697 11.344 263.233 10.968 262.689 10.696C262.145 10.408 261.545 10.264 260.889 10.264C260.169 10.264 259.513 10.432 258.921 10.768C258.329 11.104 257.857 11.568 257.505 12.16C257.153 12.752 256.977 13.44 256.977 14.224C256.977 14.96 257.153 15.632 257.505 16.24C257.857 16.832 258.329 17.312 258.921 17.68C259.529 18.032 260.185 18.208 260.889 18.208ZM274.126 19.192C273.23 19.192 272.414 18.992 271.678 18.592C270.958 18.176 270.382 17.6 269.95 16.864C269.534 16.128 269.326 15.272 269.326 14.296C269.326 13.256 269.55 12.368 269.998 11.632C270.446 10.88 271.054 10.312 271.822 9.928C272.59 9.528 273.462 9.328 274.438 9.328C275.27 9.328 276.054 9.576 276.79 10.072C277.542 10.568 278.078 11.192 278.398 11.944L278.23 12.28L278.374 9.616H279.382V19H278.254V16.096L278.494 16.528C278.382 16.848 278.19 17.168 277.918 17.488C277.646 17.792 277.31 18.08 276.91 18.352C276.526 18.608 276.094 18.816 275.614 18.976C275.15 19.12 274.654 19.192 274.126 19.192ZM274.366 18.232C275.07 18.232 275.702 18.088 276.262 17.8C276.838 17.496 277.302 17.08 277.654 16.552C278.006 16.024 278.206 15.416 278.254 14.728V13.384C278.126 12.792 277.87 12.264 277.486 11.8C277.118 11.336 276.662 10.968 276.118 10.696C275.574 10.424 274.982 10.288 274.342 10.288C273.638 10.288 272.99 10.456 272.398 10.792C271.806 11.112 271.334 11.568 270.982 12.16C270.63 12.752 270.454 13.448 270.454 14.248C270.454 14.984 270.63 15.656 270.982 16.264C271.334 16.856 271.806 17.336 272.398 17.704C273.006 18.056 273.662 18.232 274.366 18.232ZM287.484 19.192C286.604 19.192 285.804 18.984 285.084 18.568C284.364 18.136 283.788 17.544 283.356 16.792C282.94 16.04 282.732 15.192 282.732 14.248C282.732 13.24 282.948 12.368 283.38 11.632C283.812 10.896 284.396 10.328 285.132 9.928C285.884 9.528 286.708 9.328 287.604 9.328C288.5 9.328 289.348 9.56 290.148 10.024C290.964 10.488 291.556 11.096 291.924 11.848L291.732 12.376V0.759999H292.86V19H291.708V16.12L291.948 16.648C291.548 17.4 290.948 18.016 290.148 18.496C289.348 18.96 288.46 19.192 287.484 19.192ZM287.772 18.208C288.492 18.208 289.14 18.056 289.716 17.752C290.292 17.432 290.756 17.008 291.108 16.48C291.46 15.936 291.66 15.328 291.708 14.656V13.456C291.596 12.848 291.348 12.304 290.964 11.824C290.58 11.344 290.116 10.968 289.572 10.696C289.028 10.408 288.428 10.264 287.772 10.264C287.052 10.264 286.396 10.432 285.804 10.768C285.212 11.104 284.74 11.568 284.388 12.16C284.036 12.752 283.86 13.44 283.86 14.224C283.86 14.96 284.036 15.632 284.388 16.24C284.74 16.832 285.212 17.312 285.804 17.68C286.412 18.032 287.068 18.208 287.772 18.208ZM301.2 19.192C300.224 19.192 299.36 18.976 298.608 18.544C297.856 18.112 297.264 17.528 296.832 16.792C296.416 16.04 296.208 15.2 296.208 14.272C296.208 13.36 296.432 12.528 296.88 11.776C297.328 11.024 297.928 10.424 298.68 9.976C299.448 9.528 300.296 9.304 301.224 9.304C302.344 9.304 303.28 9.632 304.032 10.288C304.8 10.944 305.352 11.8 305.688 12.856L297.48 16.024L297.144 15.208L304.656 12.28L304.416 12.616C304.144 11.976 303.728 11.424 303.168 10.96C302.624 10.496 301.952 10.264 301.152 10.264C300.432 10.264 299.784 10.44 299.208 10.792C298.632 11.144 298.168 11.616 297.816 12.208C297.48 12.8 297.312 13.472 297.312 14.224C297.312 14.928 297.472 15.584 297.792 16.192C298.128 16.8 298.592 17.288 299.184 17.656C299.776 18.024 300.456 18.208 301.224 18.208C301.736 18.208 302.224 18.112 302.688 17.92C303.168 17.728 303.592 17.48 303.96 17.176L304.536 17.992C304.088 18.344 303.568 18.632 302.976 18.856C302.4 19.08 301.808 19.192 301.2 19.192ZM311.024 19.192C310.48 19.192 309.912 19.096 309.32 18.904C308.728 18.696 308.248 18.368 307.88 17.92L308.408 17.176C308.728 17.512 309.104 17.784 309.536 17.992C309.984 18.184 310.456 18.28 310.952 18.28C311.32 18.28 311.664 18.232 311.984 18.136C312.32 18.024 312.592 17.84 312.8 17.584C313.008 17.328 313.112 16.984 313.112 16.552C313.112 16.104 312.984 15.76 312.728 15.52C312.488 15.28 312.176 15.088 311.792 14.944C311.424 14.784 311.032 14.64 310.616 14.512C309.928 14.288 309.36 13.984 308.912 13.6C308.48 13.216 308.264 12.672 308.264 11.968C308.264 11.456 308.384 11.008 308.624 10.624C308.88 10.24 309.224 9.944 309.656 9.736C310.088 9.512 310.576 9.4 311.12 9.4C311.616 9.4 312.104 9.48 312.584 9.64C313.08 9.8 313.528 10.072 313.928 10.456L313.424 11.248C313.168 10.896 312.824 10.656 312.392 10.528C311.976 10.4 311.608 10.328 311.288 10.312C311.016 10.312 310.728 10.368 310.424 10.48C310.136 10.592 309.888 10.76 309.68 10.984C309.488 11.192 309.392 11.472 309.392 11.824C309.392 12.192 309.496 12.496 309.704 12.736C309.912 12.96 310.176 13.144 310.496 13.288C310.832 13.432 311.176 13.568 311.528 13.696C311.992 13.84 312.424 14.016 312.824 14.224C313.24 14.416 313.576 14.68 313.832 15.016C314.104 15.336 314.24 15.768 314.24 16.312C314.24 16.856 314.12 17.352 313.88 17.8C313.64 18.232 313.28 18.576 312.8 18.832C312.336 19.072 311.744 19.192 311.024 19.192ZM325.587 1.96H326.763V19H325.587V1.96ZM332.604 9.616L332.724 12.568L332.58 11.992C332.852 11.176 333.364 10.536 334.116 10.072C334.884 9.592 335.732 9.352 336.66 9.352C337.54 9.352 338.252 9.616 338.796 10.144C339.34 10.656 339.62 11.328 339.636 12.16V19H338.484V12.472C338.468 11.864 338.276 11.36 337.908 10.96C337.54 10.56 337.004 10.352 336.3 10.336C335.676 10.336 335.092 10.488 334.548 10.792C334.004 11.096 333.564 11.52 333.228 12.064C332.908 12.608 332.748 13.24 332.748 13.96V19H331.62V9.616H332.604ZM344.838 5.488H345.99V9.736H348.894V10.648H345.99V19H344.838V10.648H342.846V9.736H344.838V5.488ZM355.786 19.192C354.81 19.192 353.946 18.976 353.194 18.544C352.442 18.112 351.85 17.528 351.418 16.792C351.002 16.04 350.794 15.2 350.794 14.272C350.794 13.36 351.018 12.528 351.466 11.776C351.914 11.024 352.514 10.424 353.266 9.976C354.034 9.528 354.882 9.304 355.81 9.304C356.93 9.304 357.866 9.632 358.618 10.288C359.386 10.944 359.938 11.8 360.274 12.856L352.066 16.024L351.73 15.208L359.242 12.28L359.002 12.616C358.73 11.976 358.314 11.424 357.754 10.96C357.21 10.496 356.538 10.264 355.738 10.264C355.018 10.264 354.37 10.44 353.794 10.792C353.218 11.144 352.754 11.616 352.402 12.208C352.066 12.8 351.898 13.472 351.898 14.224C351.898 14.928 352.058 15.584 352.378 16.192C352.714 16.8 353.178 17.288 353.77 17.656C354.362 18.024 355.042 18.208 355.81 18.208C356.322 18.208 356.81 18.112 357.274 17.92C357.754 17.728 358.178 17.48 358.546 17.176L359.122 17.992C358.674 18.344 358.154 18.632 357.562 18.856C356.986 19.08 356.394 19.192 355.786 19.192ZM367.578 23.584C367.05 23.584 366.546 23.52 366.066 23.392C365.586 23.28 365.114 23.08 364.65 22.792C364.186 22.504 363.706 22.128 363.21 21.664L363.882 20.896C364.57 21.552 365.21 21.992 365.802 22.216C366.394 22.456 366.97 22.576 367.53 22.576C368.506 22.576 369.282 22.416 369.858 22.096C370.434 21.792 370.85 21.376 371.106 20.848C371.362 20.336 371.498 19.76 371.514 19.12L371.538 16.072L371.802 16.36C371.482 17.192 370.906 17.872 370.074 18.4C369.258 18.928 368.33 19.192 367.29 19.192C366.41 19.192 365.602 18.976 364.866 18.544C364.146 18.096 363.57 17.504 363.138 16.768C362.706 16.016 362.49 15.184 362.49 14.272C362.49 13.296 362.714 12.44 363.162 11.704C363.61 10.968 364.218 10.392 364.986 9.976C365.754 9.544 366.602 9.328 367.53 9.328C368.394 9.328 369.21 9.552 369.978 10C370.762 10.448 371.33 11.04 371.682 11.776L371.538 12.304L371.658 9.616H372.666V19.144C372.666 19.912 372.49 20.632 372.138 21.304C371.802 21.992 371.258 22.544 370.506 22.96C369.77 23.376 368.794 23.584 367.578 23.584ZM363.618 14.248C363.618 14.984 363.794 15.656 364.146 16.264C364.498 16.856 364.97 17.336 365.562 17.704C366.17 18.056 366.842 18.232 367.578 18.232C368.282 18.232 368.922 18.08 369.498 17.776C370.074 17.456 370.546 17.032 370.914 16.504C371.282 15.976 371.49 15.408 371.538 14.8V13.408C371.41 12.8 371.154 12.264 370.77 11.8C370.402 11.336 369.938 10.968 369.378 10.696C368.834 10.424 368.234 10.288 367.578 10.288C366.842 10.288 366.17 10.456 365.562 10.792C364.97 11.128 364.498 11.592 364.146 12.184C363.794 12.776 363.618 13.464 363.618 14.248ZM377.933 9.616L378.053 12.496L377.909 12.136C378.117 11.56 378.445 11.064 378.893 10.648C379.341 10.232 379.837 9.912 380.381 9.688C380.941 9.464 381.477 9.352 381.989 9.352L381.941 10.456C381.221 10.456 380.565 10.616 379.973 10.936C379.397 11.256 378.933 11.688 378.581 12.232C378.245 12.76 378.077 13.36 378.077 14.032V19H376.949V9.616H377.933ZM388.922 19.192C388.026 19.192 387.21 18.992 386.474 18.592C385.754 18.176 385.178 17.6 384.746 16.864C384.33 16.128 384.122 15.272 384.122 14.296C384.122 13.256 384.346 12.368 384.794 11.632C385.242 10.88 385.85 10.312 386.618 9.928C387.386 9.528 388.258 9.328 389.234 9.328C390.066 9.328 390.85 9.576 391.586 10.072C392.338 10.568 392.874 11.192 393.194 11.944L393.026 12.28L393.17 9.616H394.178V19H393.05V16.096L393.29 16.528C393.178 16.848 392.986 17.168 392.714 17.488C392.442 17.792 392.106 18.08 391.706 18.352C391.322 18.608 390.89 18.816 390.41 18.976C389.946 19.12 389.45 19.192 388.922 19.192ZM389.162 18.232C389.866 18.232 390.498 18.088 391.058 17.8C391.634 17.496 392.098 17.08 392.45 16.552C392.802 16.024 393.002 15.416 393.05 14.728V13.384C392.922 12.792 392.666 12.264 392.282 11.8C391.914 11.336 391.458 10.968 390.914 10.696C390.37 10.424 389.778 10.288 389.138 10.288C388.434 10.288 387.786 10.456 387.194 10.792C386.602 11.112 386.13 11.568 385.778 12.16C385.426 12.752 385.25 13.448 385.25 14.248C385.25 14.984 385.426 15.656 385.778 16.264C386.13 16.856 386.602 17.336 387.194 17.704C387.802 18.056 388.458 18.232 389.162 18.232ZM402.281 19.192C401.401 19.192 400.601 18.984 399.881 18.568C399.161 18.136 398.585 17.544 398.153 16.792C397.737 16.04 397.529 15.192 397.529 14.248C397.529 13.24 397.745 12.368 398.177 11.632C398.609 10.896 399.193 10.328 399.929 9.928C400.681 9.528 401.505 9.328 402.401 9.328C403.297 9.328 404.145 9.56 404.945 10.024C405.761 10.488 406.353 11.096 406.721 11.848L406.529 12.376V0.759999H407.657V19H406.505V16.12L406.745 16.648C406.345 17.4 405.745 18.016 404.945 18.496C404.145 18.96 403.257 19.192 402.281 19.192ZM402.569 18.208C403.289 18.208 403.937 18.056 404.513 17.752C405.089 17.432 405.553 17.008 405.905 16.48C406.257 15.936 406.457 15.328 406.505 14.656V13.456C406.393 12.848 406.145 12.304 405.761 11.824C405.377 11.344 404.913 10.968 404.369 10.696C403.825 10.408 403.225 10.264 402.569 10.264C401.849 10.264 401.193 10.432 400.601 10.768C400.009 11.104 399.537 11.568 399.185 12.16C398.833 12.752 398.657 13.44 398.657 14.224C398.657 14.96 398.833 15.632 399.185 16.24C399.537 16.832 400.009 17.312 400.601 17.68C401.209 18.032 401.865 18.208 402.569 18.208ZM415.805 19.192C414.909 19.192 414.093 18.992 413.357 18.592C412.637 18.176 412.061 17.6 411.629 16.864C411.213 16.128 411.005 15.272 411.005 14.296C411.005 13.256 411.229 12.368 411.677 11.632C412.125 10.88 412.733 10.312 413.501 9.928C414.269 9.528 415.141 9.328 416.117 9.328C416.949 9.328 417.733 9.576 418.469 10.072C419.221 10.568 419.757 11.192 420.077 11.944L419.909 12.28L420.053 9.616H421.061V19H419.933V16.096L420.173 16.528C420.061 16.848 419.869 17.168 419.597 17.488C419.325 17.792 418.989 18.08 418.589 18.352C418.205 18.608 417.773 18.816 417.293 18.976C416.829 19.12 416.333 19.192 415.805 19.192ZM416.045 18.232C416.749 18.232 417.381 18.088 417.941 17.8C418.517 17.496 418.981 17.08 419.333 16.552C419.685 16.024 419.885 15.416 419.933 14.728V13.384C419.805 12.792 419.549 12.264 419.165 11.8C418.797 11.336 418.341 10.968 417.797 10.696C417.253 10.424 416.661 10.288 416.021 10.288C415.317 10.288 414.669 10.456 414.077 10.792C413.485 11.112 413.013 11.568 412.661 12.16C412.309 12.752 412.133 13.448 412.133 14.248C412.133 14.984 412.309 15.656 412.661 16.264C413.013 16.856 413.485 17.336 414.077 17.704C414.685 18.056 415.341 18.232 416.045 18.232ZM427.532 19.192C426.988 19.192 426.42 19.096 425.828 18.904C425.236 18.696 424.756 18.368 424.388 17.92L424.916 17.176C425.236 17.512 425.612 17.784 426.044 17.992C426.492 18.184 426.964 18.28 427.46 18.28C427.828 18.28 428.172 18.232 428.492 18.136C428.828 18.024 429.1 17.84 429.308 17.584C429.516 17.328 429.62 16.984 429.62 16.552C429.62 16.104 429.492 15.76 429.236 15.52C428.996 15.28 428.684 15.088 428.3 14.944C427.932 14.784 427.54 14.64 427.124 14.512C426.436 14.288 425.868 13.984 425.42 13.6C424.988 13.216 424.771 12.672 424.771 11.968C424.771 11.456 424.891 11.008 425.132 10.624C425.388 10.24 425.732 9.944 426.164 9.736C426.596 9.512 427.084 9.4 427.628 9.4C428.124 9.4 428.612 9.48 429.092 9.64C429.588 9.8 430.036 10.072 430.436 10.456L429.932 11.248C429.676 10.896 429.332 10.656 428.9 10.528C428.484 10.4 428.116 10.328 427.796 10.312C427.524 10.312 427.236 10.368 426.932 10.48C426.644 10.592 426.396 10.76 426.188 10.984C425.996 11.192 425.9 11.472 425.9 11.824C425.9 12.192 426.004 12.496 426.212 12.736C426.42 12.96 426.684 13.144 427.004 13.288C427.34 13.432 427.684 13.568 428.036 13.696C428.5 13.84 428.932 14.016 429.332 14.224C429.748 14.416 430.084 14.68 430.34 15.016C430.612 15.336 430.748 15.768 430.748 16.312C430.748 16.856 430.628 17.352 430.388 17.8C430.148 18.232 429.788 18.576 429.308 18.832C428.844 19.072 428.252 19.192 427.532 19.192ZM206.976 43.192C206.096 43.192 205.296 42.984 204.576 42.568C203.856 42.136 203.28 41.544 202.848 40.792C202.432 40.04 202.224 39.192 202.224 38.248C202.224 37.24 202.44 36.368 202.872 35.632C203.304 34.896 203.888 34.328 204.624 33.928C205.376 33.528 206.2 33.328 207.096 33.328C207.992 33.328 208.84 33.56 209.64 34.024C210.456 34.488 211.048 35.096 211.416 35.848L211.224 36.376V24.76H212.352V43H211.2V40.12L211.44 40.648C211.04 41.4 210.44 42.016 209.64 42.496C208.84 42.96 207.952 43.192 206.976 43.192ZM207.264 42.208C207.984 42.208 208.632 42.056 209.208 41.752C209.784 41.432 210.248 41.008 210.6 40.48C210.952 39.936 211.152 39.328 211.2 38.656V37.456C211.088 36.848 210.84 36.304 210.456 35.824C210.072 35.344 209.608 34.968 209.064 34.696C208.52 34.408 207.92 34.264 207.264 34.264C206.544 34.264 205.888 34.432 205.296 34.768C204.704 35.104 204.232 35.568 203.88 36.16C203.528 36.752 203.352 37.44 203.352 38.224C203.352 38.96 203.528 39.632 203.88 40.24C204.232 40.832 204.704 41.312 205.296 41.68C205.904 42.032 206.56 42.208 207.264 42.208ZM220.693 43.192C219.717 43.192 218.853 42.976 218.101 42.544C217.349 42.112 216.757 41.528 216.325 40.792C215.909 40.04 215.701 39.2 215.701 38.272C215.701 37.36 215.925 36.528 216.373 35.776C216.821 35.024 217.421 34.424 218.173 33.976C218.941 33.528 219.789 33.304 220.717 33.304C221.837 33.304 222.773 33.632 223.525 34.288C224.293 34.944 224.845 35.8 225.181 36.856L216.973 40.024L216.637 39.208L224.149 36.28L223.909 36.616C223.637 35.976 223.221 35.424 222.661 34.96C222.117 34.496 221.445 34.264 220.645 34.264C219.925 34.264 219.277 34.44 218.701 34.792C218.125 35.144 217.661 35.616 217.309 36.208C216.973 36.8 216.805 37.472 216.805 38.224C216.805 38.928 216.965 39.584 217.285 40.192C217.621 40.8 218.085 41.288 218.677 41.656C219.269 42.024 219.949 42.208 220.717 42.208C221.229 42.208 221.717 42.112 222.181 41.92C222.661 41.728 223.085 41.48 223.453 41.176L224.029 41.992C223.581 42.344 223.061 42.632 222.469 42.856C221.893 43.08 221.301 43.192 220.693 43.192ZM236.243 25.96H246.755V27.088H237.419V33.856H245.819V34.984H237.419V41.872H247.091V43H236.243V25.96ZM251.979 33.616L252.099 36.568L251.955 35.992C252.227 35.176 252.739 34.536 253.491 34.072C254.259 33.592 255.107 33.352 256.035 33.352C256.915 33.352 257.627 33.616 258.171 34.144C258.715 34.656 258.995 35.328 259.011 36.16V43H257.859V36.472C257.843 35.864 257.651 35.36 257.283 34.96C256.915 34.56 256.379 34.352 255.675 34.336C255.051 34.336 254.467 34.488 253.923 34.792C253.379 35.096 252.939 35.52 252.603 36.064C252.283 36.608 252.123 37.24 252.123 37.96V43H250.995V33.616H251.979ZM265.485 43.192C264.941 43.192 264.373 43.096 263.781 42.904C263.189 42.696 262.709 42.368 262.341 41.92L262.869 41.176C263.189 41.512 263.565 41.784 263.997 41.992C264.445 42.184 264.917 42.28 265.413 42.28C265.781 42.28 266.125 42.232 266.445 42.136C266.781 42.024 267.053 41.84 267.261 41.584C267.469 41.328 267.573 40.984 267.573 40.552C267.573 40.104 267.445 39.76 267.189 39.52C266.949 39.28 266.637 39.088 266.253 38.944C265.885 38.784 265.493 38.64 265.077 38.512C264.389 38.288 263.821 37.984 263.373 37.6C262.941 37.216 262.725 36.672 262.725 35.968C262.725 35.456 262.845 35.008 263.085 34.624C263.341 34.24 263.685 33.944 264.117 33.736C264.549 33.512 265.037 33.4 265.581 33.4C266.077 33.4 266.565 33.48 267.045 33.64C267.541 33.8 267.989 34.072 268.389 34.456L267.885 35.248C267.629 34.896 267.285 34.656 266.853 34.528C266.437 34.4 266.069 34.328 265.749 34.312C265.477 34.312 265.189 34.368 264.885 34.48C264.597 34.592 264.349 34.76 264.141 34.984C263.949 35.192 263.853 35.472 263.853 35.824C263.853 36.192 263.957 36.496 264.165 36.736C264.373 36.96 264.637 37.144 264.957 37.288C265.293 37.432 265.637 37.568 265.989 37.696C266.453 37.84 266.885 38.016 267.285 38.224C267.701 38.416 268.037 38.68 268.293 39.016C268.565 39.336 268.701 39.768 268.701 40.312C268.701 40.856 268.581 41.352 268.341 41.8C268.101 42.232 267.741 42.576 267.261 42.832C266.797 43.072 266.205 43.192 265.485 43.192ZM272.113 33.616H273.241V43H272.113V33.616ZM271.873 30.16C271.873 29.936 271.961 29.752 272.137 29.608C272.313 29.448 272.505 29.368 272.713 29.368C272.937 29.368 273.129 29.448 273.289 29.608C273.449 29.752 273.529 29.936 273.529 30.16C273.529 30.4 273.449 30.6 273.289 30.76C273.129 30.904 272.937 30.976 272.713 30.976C272.505 30.976 272.313 30.896 272.137 30.736C271.961 30.576 271.873 30.384 271.873 30.16ZM278.487 33.616L278.607 36.568L278.463 35.992C278.735 35.176 279.247 34.536 279.999 34.072C280.767 33.592 281.615 33.352 282.543 33.352C283.423 33.352 284.135 33.616 284.679 34.144C285.223 34.656 285.503 35.328 285.519 36.16V43H284.367V36.472C284.351 35.864 284.159 35.36 283.791 34.96C283.423 34.56 282.887 34.352 282.183 34.336C281.559 34.336 280.975 34.488 280.431 34.792C279.887 35.096 279.447 35.52 279.111 36.064C278.791 36.608 278.631 37.24 278.631 37.96V43H277.503V33.616H278.487ZM288.872 38.248C288.872 37.336 289.088 36.504 289.52 35.752C289.968 35 290.568 34.408 291.32 33.976C292.088 33.528 292.944 33.304 293.888 33.304C294.848 33.304 295.704 33.528 296.456 33.976C297.208 34.408 297.8 35 298.232 35.752C298.664 36.504 298.88 37.336 298.88 38.248C298.88 39.16 298.664 39.992 298.232 40.744C297.8 41.496 297.2 42.096 296.432 42.544C295.68 42.976 294.832 43.192 293.888 43.192C292.928 43.192 292.072 42.984 291.32 42.568C290.568 42.136 289.968 41.552 289.52 40.816C289.088 40.064 288.872 39.208 288.872 38.248ZM290 38.272C290 39.008 290.168 39.68 290.504 40.288C290.856 40.88 291.32 41.352 291.896 41.704C292.488 42.056 293.144 42.232 293.864 42.232C294.584 42.232 295.232 42.056 295.808 41.704C296.4 41.352 296.864 40.88 297.2 40.288C297.552 39.68 297.728 39.008 297.728 38.272C297.728 37.536 297.552 36.872 297.2 36.28C296.864 35.672 296.4 35.192 295.808 34.84C295.232 34.472 294.584 34.288 293.864 34.288C293.128 34.288 292.464 34.48 291.872 34.864C291.296 35.232 290.84 35.72 290.504 36.328C290.168 36.936 290 37.584 290 38.272ZM318.685 27.88C318.189 27.64 317.581 27.416 316.861 27.208C316.141 27 315.421 26.896 314.701 26.896C313.581 26.896 312.685 27.176 312.013 27.736C311.341 28.296 311.005 29 311.005 29.848C311.005 30.488 311.197 31.024 311.581 31.456C311.965 31.872 312.469 32.232 313.093 32.536C313.717 32.824 314.381 33.104 315.085 33.376C315.645 33.584 316.197 33.816 316.741 34.072C317.301 34.328 317.805 34.64 318.253 35.008C318.701 35.376 319.053 35.832 319.309 36.376C319.581 36.92 319.717 37.592 319.717 38.392C319.717 39.336 319.493 40.176 319.045 40.912C318.597 41.632 317.973 42.192 317.173 42.592C316.373 42.992 315.445 43.192 314.389 43.192C313.541 43.192 312.765 43.088 312.061 42.88C311.373 42.672 310.765 42.432 310.237 42.16C309.725 41.872 309.317 41.632 309.013 41.44L309.565 40.48C309.917 40.736 310.341 40.992 310.837 41.248C311.349 41.504 311.901 41.72 312.493 41.896C313.085 42.072 313.677 42.16 314.269 42.16C314.957 42.16 315.621 42.024 316.261 41.752C316.917 41.48 317.453 41.072 317.869 40.528C318.301 39.968 318.517 39.264 318.517 38.416C318.517 37.6 318.317 36.944 317.917 36.448C317.517 35.936 317.005 35.52 316.381 35.2C315.757 34.88 315.093 34.592 314.389 34.336C313.845 34.128 313.301 33.912 312.757 33.688C312.213 33.448 311.717 33.168 311.269 32.848C310.821 32.512 310.461 32.112 310.189 31.648C309.933 31.184 309.805 30.624 309.805 29.968C309.805 29.152 310.013 28.44 310.429 27.832C310.845 27.224 311.405 26.752 312.109 26.416C312.829 26.064 313.645 25.88 314.557 25.864C315.357 25.864 316.165 25.968 316.981 26.176C317.813 26.384 318.533 26.648 319.141 26.968L318.685 27.88ZM326.486 43.264C325.606 43.264 324.902 43.008 324.374 42.496C323.846 41.968 323.566 41.288 323.534 40.456V33.616H324.662V40.12C324.694 40.728 324.886 41.232 325.238 41.632C325.606 42.032 326.15 42.248 326.87 42.28C327.478 42.28 328.046 42.12 328.574 41.8C329.102 41.48 329.526 41.048 329.846 40.504C330.182 39.944 330.35 39.312 330.35 38.608V33.616H331.478V43H330.47L330.35 40.048L330.518 40.696C330.358 41.176 330.07 41.616 329.654 42.016C329.254 42.4 328.774 42.704 328.214 42.928C327.67 43.152 327.094 43.264 326.486 43.264ZM340.929 43.192C340.033 43.192 339.193 42.96 338.409 42.496C337.625 42.016 337.049 41.4 336.681 40.648L336.873 40.24V47.512H335.745V33.544H336.753L336.873 36.616L336.657 35.92C337.073 35.168 337.681 34.552 338.481 34.072C339.281 33.576 340.153 33.328 341.097 33.328C341.993 33.328 342.801 33.544 343.521 33.976C344.241 34.408 344.809 35 345.225 35.752C345.657 36.488 345.873 37.336 345.873 38.296C345.873 39.24 345.649 40.088 345.201 40.84C344.769 41.576 344.177 42.152 343.425 42.568C342.689 42.984 341.857 43.192 340.929 43.192ZM340.737 42.256C341.473 42.256 342.137 42.08 342.729 41.728C343.337 41.376 343.817 40.904 344.169 40.312C344.537 39.704 344.721 39.032 344.721 38.296C344.721 37.544 344.545 36.872 344.193 36.28C343.841 35.672 343.369 35.192 342.777 34.84C342.201 34.488 341.545 34.312 340.809 34.312C340.105 34.312 339.465 34.472 338.889 34.792C338.313 35.112 337.849 35.544 337.497 36.088C337.145 36.632 336.937 37.248 336.873 37.936V38.704C336.921 39.36 337.121 39.96 337.473 40.504C337.841 41.048 338.305 41.48 338.865 41.8C339.441 42.104 340.065 42.256 340.737 42.256ZM353.302 43.192C352.326 43.192 351.462 42.976 350.71 42.544C349.958 42.112 349.366 41.528 348.934 40.792C348.518 40.04 348.31 39.2 348.31 38.272C348.31 37.36 348.534 36.528 348.982 35.776C349.43 35.024 350.03 34.424 350.782 33.976C351.55 33.528 352.398 33.304 353.326 33.304C354.446 33.304 355.382 33.632 356.134 34.288C356.902 34.944 357.454 35.8 357.79 36.856L349.582 40.024L349.246 39.208L356.758 36.28L356.518 36.616C356.246 35.976 355.83 35.424 355.27 34.96C354.726 34.496 354.054 34.264 353.254 34.264C352.534 34.264 351.886 34.44 351.31 34.792C350.734 35.144 350.27 35.616 349.918 36.208C349.582 36.8 349.414 37.472 349.414 38.224C349.414 38.928 349.574 39.584 349.894 40.192C350.23 40.8 350.694 41.288 351.286 41.656C351.878 42.024 352.558 42.208 353.326 42.208C353.838 42.208 354.326 42.112 354.79 41.92C355.27 41.728 355.694 41.48 356.062 41.176L356.638 41.992C356.19 42.344 355.67 42.632 355.078 42.856C354.502 43.08 353.91 43.192 353.302 43.192ZM361.901 33.616L362.021 36.496L361.877 36.136C362.085 35.56 362.413 35.064 362.861 34.648C363.309 34.232 363.805 33.912 364.349 33.688C364.909 33.464 365.445 33.352 365.957 33.352L365.909 34.456C365.189 34.456 364.533 34.616 363.941 34.936C363.365 35.256 362.901 35.688 362.549 36.232C362.213 36.76 362.045 37.36 362.045 38.032V43H360.917V33.616H361.901ZM369.12 33.616H370.248V43H369.12V33.616ZM368.88 30.16C368.88 29.936 368.968 29.752 369.144 29.608C369.32 29.448 369.512 29.368 369.72 29.368C369.944 29.368 370.136 29.448 370.296 29.608C370.456 29.752 370.536 29.936 370.536 30.16C370.536 30.4 370.456 30.6 370.296 30.76C370.136 30.904 369.944 30.976 369.72 30.976C369.512 30.976 369.32 30.896 369.144 30.736C368.968 30.576 368.88 30.384 368.88 30.16ZM373.599 38.248C373.599 37.336 373.815 36.504 374.247 35.752C374.695 35 375.295 34.408 376.047 33.976C376.815 33.528 377.671 33.304 378.615 33.304C379.575 33.304 380.431 33.528 381.183 33.976C381.935 34.408 382.527 35 382.959 35.752C383.391 36.504 383.607 37.336 383.607 38.248C383.607 39.16 383.391 39.992 382.959 40.744C382.527 41.496 381.927 42.096 381.159 42.544C380.407 42.976 379.559 43.192 378.615 43.192C377.655 43.192 376.799 42.984 376.047 42.568C375.295 42.136 374.695 41.552 374.247 40.816C373.815 40.064 373.599 39.208 373.599 38.248ZM374.727 38.272C374.727 39.008 374.895 39.68 375.231 40.288C375.583 40.88 376.047 41.352 376.623 41.704C377.215 42.056 377.871 42.232 378.591 42.232C379.311 42.232 379.959 42.056 380.535 41.704C381.127 41.352 381.591 40.88 381.927 40.288C382.279 39.68 382.455 39.008 382.455 38.272C382.455 37.536 382.279 36.872 381.927 36.28C381.591 35.672 381.127 35.192 380.535 34.84C379.959 34.472 379.311 34.288 378.591 34.288C377.855 34.288 377.191 34.48 376.599 34.864C376.023 35.232 375.567 35.72 375.231 36.328C374.895 36.936 374.727 37.584 374.727 38.272ZM387.94 33.616L388.06 36.496L387.916 36.136C388.124 35.56 388.452 35.064 388.9 34.648C389.348 34.232 389.844 33.912 390.388 33.688C390.948 33.464 391.484 33.352 391.996 33.352L391.948 34.456C391.228 34.456 390.572 34.616 389.98 34.936C389.404 35.256 388.94 35.688 388.588 36.232C388.252 36.76 388.084 37.36 388.084 38.032V43H386.956V33.616H387.94ZM401.607 43L408.807 25.216H408.903L416.103 43H414.783L408.519 27.088L409.335 26.632L402.783 43H401.607ZM405.087 36.256H412.647L412.983 37.36H404.799L405.087 36.256ZM421.672 43.192C421.128 43.192 420.56 43.096 419.968 42.904C419.376 42.696 418.896 42.368 418.528 41.92L419.056 41.176C419.376 41.512 419.752 41.784 420.184 41.992C420.632 42.184 421.104 42.28 421.6 42.28C421.968 42.28 422.312 42.232 422.632 42.136C422.968 42.024 423.24 41.84 423.448 41.584C423.656 41.328 423.76 40.984 423.76 40.552C423.76 40.104 423.632 39.76 423.376 39.52C423.136 39.28 422.824 39.088 422.44 38.944C422.072 38.784 421.68 38.64 421.264 38.512C420.576 38.288 420.008 37.984 419.56 37.6C419.128 37.216 418.912 36.672 418.912 35.968C418.912 35.456 419.032 35.008 419.272 34.624C419.528 34.24 419.872 33.944 420.304 33.736C420.736 33.512 421.224 33.4 421.768 33.4C422.264 33.4 422.752 33.48 423.232 33.64C423.728 33.8 424.176 34.072 424.576 34.456L424.072 35.248C423.816 34.896 423.472 34.656 423.04 34.528C422.624 34.4 422.256 34.328 421.936 34.312C421.664 34.312 421.376 34.368 421.072 34.48C420.784 34.592 420.536 34.76 420.328 34.984C420.136 35.192 420.04 35.472 420.04 35.824C420.04 36.192 420.144 36.496 420.352 36.736C420.56 36.96 420.824 37.144 421.144 37.288C421.48 37.432 421.824 37.568 422.176 37.696C422.64 37.84 423.072 38.016 423.472 38.224C423.888 38.416 424.224 38.68 424.48 39.016C424.752 39.336 424.888 39.768 424.888 40.312C424.888 40.856 424.768 41.352 424.528 41.8C424.288 42.232 423.928 42.576 423.448 42.832C422.984 43.072 422.392 43.192 421.672 43.192ZM430.508 43.192C429.964 43.192 429.396 43.096 428.804 42.904C428.212 42.696 427.732 42.368 427.364 41.92L427.892 41.176C428.212 41.512 428.588 41.784 429.02 41.992C429.468 42.184 429.94 42.28 430.436 42.28C430.804 42.28 431.148 42.232 431.468 42.136C431.804 42.024 432.076 41.84 432.284 41.584C432.492 41.328 432.596 40.984 432.596 40.552C432.596 40.104 432.468 39.76 432.212 39.52C431.972 39.28 431.66 39.088 431.276 38.944C430.908 38.784 430.516 38.64 430.1 38.512C429.412 38.288 428.844 37.984 428.396 37.6C427.964 37.216 427.748 36.672 427.748 35.968C427.748 35.456 427.868 35.008 428.108 34.624C428.364 34.24 428.708 33.944 429.14 33.736C429.572 33.512 430.06 33.4 430.604 33.4C431.1 33.4 431.588 33.48 432.068 33.64C432.564 33.8 433.012 34.072 433.412 34.456L432.908 35.248C432.652 34.896 432.308 34.656 431.876 34.528C431.46 34.4 431.092 34.328 430.772 34.312C430.5 34.312 430.212 34.368 429.908 34.48C429.62 34.592 429.372 34.76 429.164 34.984C428.972 35.192 428.876 35.472 428.876 35.824C428.876 36.192 428.98 36.496 429.188 36.736C429.396 36.96 429.66 37.144 429.98 37.288C430.316 37.432 430.66 37.568 431.012 37.696C431.476 37.84 431.908 38.016 432.308 38.224C432.724 38.416 433.06 38.68 433.316 39.016C433.588 39.336 433.724 39.768 433.724 40.312C433.724 40.856 433.604 41.352 433.364 41.8C433.124 42.232 432.764 42.576 432.284 42.832C431.82 43.072 431.228 43.192 430.508 43.192ZM440.088 43.264C439.208 43.264 438.504 43.008 437.976 42.496C437.448 41.968 437.168 41.288 437.136 40.456V33.616H438.264V40.12C438.296 40.728 438.488 41.232 438.84 41.632C439.208 42.032 439.752 42.248 440.472 42.28C441.08 42.28 441.648 42.12 442.176 41.8C442.704 41.48 443.128 41.048 443.448 40.504C443.784 39.944 443.952 39.312 443.952 38.608V33.616H445.08V43H444.072L443.952 40.048L444.12 40.696C443.96 41.176 443.672 41.616 443.256 42.016C442.856 42.4 442.376 42.704 441.816 42.928C441.272 43.152 440.696 43.264 440.088 43.264ZM450.331 33.616L450.451 36.568L450.307 35.992C450.579 35.176 451.091 34.536 451.843 34.072C452.611 33.592 453.459 33.352 454.387 33.352C455.267 33.352 455.979 33.616 456.523 34.144C457.067 34.656 457.347 35.328 457.363 36.16V43H456.211V36.472C456.195 35.864 456.003 35.36 455.635 34.96C455.267 34.56 454.731 34.352 454.027 34.336C453.403 34.336 452.819 34.488 452.275 34.792C451.731 35.096 451.291 35.52 450.955 36.064C450.635 36.608 450.475 37.24 450.475 37.96V43H449.347V33.616H450.331ZM468.876 42.088C468.444 42.44 467.956 42.712 467.412 42.904C466.868 43.096 466.3 43.192 465.708 43.192C464.748 43.192 463.892 42.984 463.14 42.568C462.388 42.136 461.796 41.552 461.364 40.816C460.932 40.08 460.716 39.24 460.716 38.296C460.716 37.352 460.94 36.512 461.388 35.776C461.836 35.04 462.428 34.464 463.164 34.048C463.916 33.616 464.732 33.4 465.612 33.4C466.268 33.4 466.876 33.496 467.436 33.688C467.996 33.88 468.484 34.152 468.9 34.504L468.3 35.272C467.964 35 467.572 34.776 467.124 34.6C466.676 34.424 466.196 34.336 465.684 34.336C464.98 34.336 464.332 34.512 463.74 34.864C463.164 35.216 462.7 35.696 462.348 36.304C462.012 36.896 461.844 37.56 461.844 38.296C461.844 39.016 462.012 39.68 462.348 40.288C462.7 40.88 463.172 41.352 463.764 41.704C464.372 42.056 465.044 42.232 465.78 42.232C466.26 42.232 466.708 42.16 467.124 42.016C467.54 41.856 467.916 41.648 468.252 41.392L468.876 42.088ZM462.828 47.008C463.004 47.184 463.236 47.328 463.524 47.44C463.828 47.568 464.18 47.632 464.58 47.632C465.14 47.632 465.604 47.512 465.972 47.272C466.356 47.048 466.548 46.728 466.548 46.312C466.548 45.944 466.404 45.624 466.116 45.352C465.828 45.08 465.364 44.944 464.724 44.944C464.468 44.944 464.172 44.976 463.836 45.04C463.5 45.12 463.236 45.2 463.044 45.28L462.684 44.68L464.364 42.808L465.228 42.976L463.62 44.944L463.212 44.68C463.388 44.568 463.644 44.472 463.98 44.392C464.316 44.328 464.636 44.296 464.94 44.296C465.756 44.28 466.396 44.44 466.86 44.776C467.324 45.128 467.556 45.632 467.556 46.288C467.556 46.752 467.428 47.136 467.172 47.44C466.916 47.744 466.572 47.968 466.14 48.112C465.708 48.256 465.228 48.328 464.7 48.328C464.204 48.328 463.756 48.256 463.356 48.112C462.972 47.968 462.66 47.792 462.42 47.584L462.828 47.008ZM475.899 43.192C475.003 43.192 474.187 42.992 473.451 42.592C472.731 42.176 472.155 41.6 471.723 40.864C471.307 40.128 471.099 39.272 471.099 38.296C471.099 37.256 471.323 36.368 471.771 35.632C472.219 34.88 472.827 34.312 473.595 33.928C474.363 33.528 475.235 33.328 476.211 33.328C477.043 33.328 477.827 33.576 478.563 34.072C479.315 34.568 479.851 35.192 480.171 35.944L480.003 36.28L480.147 33.616H481.155V43H480.027V40.096L480.267 40.528C480.155 40.848 479.963 41.168 479.691 41.488C479.419 41.792 479.083 42.08 478.683 42.352C478.299 42.608 477.867 42.816 477.387 42.976C476.923 43.12 476.427 43.192 475.899 43.192ZM476.139 42.232C476.843 42.232 477.475 42.088 478.035 41.8C478.611 41.496 479.075 41.08 479.427 40.552C479.779 40.024 479.979 39.416 480.027 38.728V37.384C479.899 36.792 479.643 36.264 479.259 35.8C478.891 35.336 478.435 34.968 477.891 34.696C477.347 34.424 476.755 34.288 476.115 34.288C475.411 34.288 474.763 34.456 474.171 34.792C473.579 35.112 473.107 35.568 472.755 36.16C472.403 36.752 472.227 37.448 472.227 38.248C472.227 38.984 472.403 39.656 472.755 40.264C473.107 40.856 473.579 41.336 474.171 41.704C474.779 42.056 475.435 42.232 476.139 42.232ZM478.515 32.008C478.035 32.008 477.643 31.896 477.339 31.672C477.051 31.432 476.779 31.176 476.523 30.904C476.315 30.696 476.099 30.504 475.875 30.328C475.667 30.136 475.419 30.04 475.131 30.04C474.939 30.04 474.747 30.112 474.555 30.256C474.379 30.384 474.227 30.6 474.099 30.904C473.971 31.192 473.899 31.592 473.883 32.104L473.163 32.08C473.147 31.456 473.227 30.928 473.403 30.496C473.595 30.048 473.843 29.712 474.147 29.488C474.451 29.264 474.795 29.152 475.179 29.152C475.611 29.152 475.971 29.272 476.259 29.512C476.547 29.736 476.811 29.976 477.051 30.232C477.259 30.472 477.475 30.688 477.699 30.88C477.923 31.072 478.187 31.168 478.491 31.168C478.811 31.168 479.075 31.008 479.283 30.688C479.507 30.368 479.635 29.824 479.667 29.056L480.387 29.08C480.403 29.72 480.323 30.264 480.147 30.712C479.987 31.144 479.763 31.472 479.475 31.696C479.187 31.904 478.867 32.008 478.515 32.008ZM484.505 38.248C484.505 37.336 484.721 36.504 485.153 35.752C485.601 35 486.201 34.408 486.953 33.976C487.721 33.528 488.577 33.304 489.521 33.304C490.481 33.304 491.337 33.528 492.089 33.976C492.841 34.408 493.433 35 493.865 35.752C494.297 36.504 494.513 37.336 494.513 38.248C494.513 39.16 494.297 39.992 493.865 40.744C493.433 41.496 492.833 42.096 492.065 42.544C491.313 42.976 490.465 43.192 489.521 43.192C488.561 43.192 487.705 42.984 486.953 42.568C486.201 42.136 485.601 41.552 485.153 40.816C484.721 40.064 484.505 39.208 484.505 38.248ZM485.633 38.272C485.633 39.008 485.801 39.68 486.137 40.288C486.489 40.88 486.953 41.352 487.529 41.704C488.121 42.056 488.777 42.232 489.497 42.232C490.217 42.232 490.865 42.056 491.441 41.704C492.033 41.352 492.497 40.88 492.833 40.288C493.185 39.68 493.361 39.008 493.361 38.272C493.361 37.536 493.185 36.872 492.833 36.28C492.497 35.672 492.033 35.192 491.441 34.84C490.865 34.472 490.217 34.288 489.497 34.288C488.761 34.288 488.097 34.48 487.505 34.864C486.929 35.232 486.473 35.72 486.137 36.328C485.801 36.936 485.633 37.584 485.633 38.272Z" fill="#2830E6"/>
<path d="M182 1V45" stroke="#2830E6" stroke-opacity="0.17"/>
<defs>
<linearGradient id="paint0_linear_113_12" x1="87.7382" y1="16.1531" x2="149.307" y2="43.0736" gradientUnits="userSpaceOnUse">
<stop stop-color="#2830E6"/>
<stop offset="1" stop-color="#EF2020"/>
</linearGradient>
</defs>
</svg>
