<svg width="58" height="58" viewBox="0 0 58 58" fill="none" xmlns="http://www.w3.org/2000/svg">
<path d="M47.9009 14.9997H10.0998C9.41049 14.9997 8.85156 15.5585 8.85156 16.2479V35.1007C8.85156 35.7901 9.41049 36.3489 10.0998 36.3489C10.7891 36.3489 11.3481 35.7901 11.3481 35.1007V17.4961H46.6527V35.1006C46.6527 35.79 47.2116 36.3488 47.9009 36.3488C48.5903 36.3488 49.1492 35.79 49.1492 35.1006V16.2478C49.1491 15.5585 48.5901 14.9997 47.9009 14.9997Z" fill="black"/>
<path d="M56.8767 39.5581H54.5777V13.3442C54.5777 11.2637 52.885 9.57104 50.8045 9.57104H7.19564C5.115 9.57104 3.42246 11.2637 3.42246 13.3442V39.5581H1.12341C0.50297 39.5581 0 40.061 0 40.6815V42.8869C0 45.9429 2.48619 48.4291 5.54218 48.4291H52.4578C55.5138 48.4291 58 45.9429 58 42.8869V40.6815C58.0001 40.061 57.4973 39.5581 56.8767 39.5581ZM5.91884 13.3442C5.91884 12.6403 6.49171 12.0674 7.19564 12.0674H50.8042C51.5084 12.0674 52.081 12.6402 52.081 13.3442V39.5581H35.1794C35.0998 39.5555 35.0177 39.5623 34.9361 39.5781C34.4073 39.6798 34.0252 40.1427 34.0252 40.6811C34.0252 41.6294 33.2538 42.4007 32.3057 42.4007H25.6945C24.7462 42.4007 23.975 41.6292 23.975 40.6811C23.975 40.052 23.4538 39.5444 22.8255 39.5579H5.91884V13.3442ZM55.7533 42.8869C55.7533 44.7041 54.2749 46.1823 52.4579 46.1823H5.54218C3.72515 46.1823 2.24682 44.7041 2.24682 42.8869V41.805H21.8902C22.3758 43.4465 23.8975 44.6476 25.6944 44.6476H32.3056C34.1025 44.6476 35.6242 43.4464 36.1099 41.805H55.7534V42.8869H55.7533Z" fill="black"/>
<path d="M30.8502 22.2552C30.3626 21.7677 29.5725 21.7677 29.0848 22.2552L21.2347 30.1056C20.7473 30.593 20.7473 31.3834 21.2347 31.8708C21.4785 32.1146 21.798 32.2364 22.1173 32.2364C22.4368 32.2364 22.7561 32.1144 22.9999 31.8708L30.8502 24.0206C31.3376 23.5331 31.3376 22.7427 30.8502 22.2552Z" fill="black"/>
<path d="M35.5032 26.8046C35.0157 26.3171 34.2255 26.3171 33.738 26.8046L30.6107 29.9318C30.1233 30.4193 30.1233 31.2096 30.6107 31.6972C30.8545 31.941 31.1739 32.0627 31.4933 32.0627C31.8128 32.0627 32.1321 31.941 32.3759 31.6972L35.5031 28.5699C35.9907 28.0825 35.9907 27.2921 35.5032 26.8046Z" fill="black"/>
</svg>
