<svg width="413" height="395" viewBox="0 0 413 395" fill="none" xmlns="http://www.w3.org/2000/svg">
<g clip-path="url(#clip0_174_97)">
<g filter="url(#filter0_d_174_97)">
<rect x="30" y="23" width="354" height="349" rx="50" fill="white"/>
</g>
<path d="M96.6086 216.687L92.2422 213.175C100.818 202.518 100.818 192.158 92.2422 181.501L96.6086 177.989C106.938 190.83 106.938 203.848 96.6086 216.687Z" fill="#0070F3"/>
<path d="M272.182 275.428C271.706 275.428 271.23 275.308 270.802 275.064L254.215 265.656L237.632 275.064C236.769 275.557 235.705 275.552 234.842 275.047C233.98 274.543 233.45 273.622 233.45 272.628V197.339C233.45 195.793 234.702 194.538 236.251 194.538H272.182C273.731 194.538 274.983 195.793 274.983 197.339V272.628C274.983 273.622 274.454 274.546 273.591 275.047C273.154 275.302 272.67 275.428 272.182 275.428ZM254.215 259.635C254.691 259.635 255.17 259.755 255.596 259.999L269.382 267.819V200.14H239.052V267.819L252.835 259.999C253.26 259.755 253.739 259.635 254.215 259.635Z" fill="#0070F3"/>
<path d="M285.05 200.14H184.775C183.229 200.14 181.975 198.885 181.975 197.339C181.975 195.793 183.229 194.538 184.775 194.538H285.05C286.598 194.538 287.85 195.793 287.85 197.339C287.85 198.885 286.596 200.14 285.05 200.14Z" fill="#0070F3"/>
<path d="M319.645 161.293H122.648C99.6813 161.293 81 142.612 81 119.648C81 96.6841 99.6813 78 122.648 78H319.645C327.05 78 333.072 84.0245 333.072 91.427C333.072 98.8295 327.05 104.854 319.645 104.854H122.648C114.489 104.854 107.854 111.489 107.854 119.648C107.854 127.807 114.489 134.442 122.648 134.442H319.645C327.05 134.442 333.072 140.463 333.072 147.869C333.072 155.274 327.05 161.293 319.645 161.293ZM122.648 83.6016C102.771 83.6016 86.6016 99.7734 86.6016 119.648C86.6016 139.522 102.771 155.694 122.648 155.694H319.645C323.961 155.694 327.47 152.185 327.47 147.869C327.47 143.553 323.961 140.043 319.645 140.043H122.648C111.403 140.043 102.252 130.893 102.252 119.648C102.252 108.403 111.403 99.2525 122.648 99.2525H319.645C323.961 99.2525 327.47 95.7431 327.47 91.427C327.47 87.111 323.961 83.6016 319.645 83.6016H122.648Z" fill="#0070F3"/>
<path d="M317.463 138.996C307.133 126.157 307.133 113.136 317.463 100.297L321.829 103.809C313.253 114.466 313.253 124.827 321.829 135.486L317.463 138.996Z" fill="#0070F3"/>
<path d="M319.645 316.676H122.648C99.6813 316.676 81 297.994 81 275.031C81 252.067 99.6813 233.383 122.648 233.383H236.251V238.984H122.648C102.771 238.984 86.6016 255.156 86.6016 275.031C86.6016 294.905 102.771 311.074 122.648 311.074H319.645C323.961 311.074 327.47 307.565 327.47 303.249C327.47 298.933 323.961 295.423 319.645 295.423H122.648C111.403 295.423 102.252 286.273 102.252 275.031C102.252 263.788 111.403 254.638 122.648 254.638H236.251V260.24H122.648C114.489 260.24 107.854 266.875 107.854 275.031C107.854 283.187 114.489 289.822 122.648 289.822H319.645C327.05 289.822 333.072 295.843 333.072 303.249C333.072 310.654 327.05 316.676 319.645 316.676Z" fill="#0070F3"/>
<path d="M319.645 260.24H272.183V254.638H319.645C323.961 254.638 327.47 251.129 327.47 246.813C327.47 242.497 323.961 238.984 319.645 238.984H272.183V233.383H319.645C327.05 233.383 333.072 239.407 333.072 246.813C333.072 254.218 327.05 260.24 319.645 260.24Z" fill="#0070F3"/>
<path d="M317.463 294.379C307.133 281.54 307.133 268.522 317.463 255.683L321.829 259.195C313.253 269.852 313.253 280.212 321.829 290.869L317.463 294.379Z" fill="#0070F3"/>
<path d="M236.251 238.984H94.427C87.0217 238.984 81 232.963 81 225.557C81 218.152 87.0217 212.13 94.427 212.13H236.251V217.732H94.427C90.111 217.732 86.6016 221.241 86.6016 225.557C86.6016 229.873 90.111 233.383 94.427 233.383H236.251V238.984Z" fill="#0070F3"/>
<path d="M291.427 238.984H272.183V233.383H291.427C311.301 233.383 327.47 217.214 327.47 197.339C327.47 177.465 311.301 161.293 291.427 161.293H94.427C90.111 161.293 86.6016 164.805 86.6016 169.118C86.6016 173.432 90.111 176.944 94.427 176.944H291.427C302.672 176.944 311.82 186.094 311.82 197.339C311.82 208.585 302.669 217.732 291.427 217.732H272.183V212.13H291.427C299.583 212.13 306.218 205.495 306.218 197.339C306.218 189.181 299.583 182.545 291.427 182.545H94.427C87.0217 182.545 81 176.524 81 169.118C81 161.713 87.0217 155.691 94.427 155.691H291.427C314.391 155.691 333.072 174.376 333.072 197.339C333.072 220.303 314.391 238.984 291.427 238.984Z" fill="#0070F3"/>
</g>
<defs>
<filter id="filter0_d_174_97" x="30" y="23" width="379" height="374" filterUnits="userSpaceOnUse" color-interpolation-filters="sRGB">
<feFlood flood-opacity="0" result="BackgroundImageFix"/>
<feColorMatrix in="SourceAlpha" type="matrix" values="0 0 0 0 0 0 0 0 0 0 0 0 0 0 0 0 0 0 127 0" result="hardAlpha"/>
<feOffset dx="15" dy="15"/>
<feGaussianBlur stdDeviation="5"/>
<feComposite in2="hardAlpha" operator="out"/>
<feColorMatrix type="matrix" values="0 0 0 0 0 0 0 0 0 0 0 0 0 0 0 0 0 0 0.1 0"/>
<feBlend mode="normal" in2="BackgroundImageFix" result="effect1_dropShadow_174_97"/>
<feBlend mode="normal" in="SourceGraphic" in2="effect1_dropShadow_174_97" result="shape"/>
</filter>
<clipPath id="clip0_174_97">
<rect width="413" height="395" fill="white"/>
</clipPath>
</defs>
</svg>
