<svg width="413" height="395" viewBox="0 0 413 395" fill="none" xmlns="http://www.w3.org/2000/svg">
<g clip-path="url(#clip0_170_91)">
<g filter="url(#filter0_d_170_91)">
<rect x="30" y="23" width="354" height="349" rx="50" fill="white"/>
<path d="M258.297 198.938C256.724 198.938 255.452 197.663 255.452 196.093V138.783C255.452 137.213 256.724 135.939 258.297 135.939C259.87 135.939 261.141 137.213 261.141 138.783V196.09C261.141 197.663 259.87 198.938 258.297 198.938Z" fill="#0070F3"/>
<path d="M241.346 191.098C239.773 191.098 238.502 189.824 238.502 188.254V151.95C236.906 149.999 225.406 146.685 207 146.685C188.59 146.685 177.09 149.999 175.495 151.95V188.257C175.495 189.827 174.22 191.101 172.65 191.101C171.08 191.101 169.806 189.827 169.806 188.257V151.677C169.806 141.295 203.191 140.996 207 140.996C210.805 140.996 244.191 141.295 244.191 151.677V188.254C244.191 189.824 242.919 191.098 241.346 191.098Z" fill="#0070F3"/>
<path d="M207 198.937C203.194 198.937 169.806 198.639 169.806 188.257C169.806 177.877 203.191 177.576 207 177.576C210.805 177.576 244.191 177.874 244.191 188.257C244.191 198.636 210.805 198.937 207 198.937ZM175.77 188.254C178.14 190.225 189.418 193.246 207 193.246C224.578 193.246 235.857 190.225 238.229 188.254C235.857 186.283 224.578 183.262 207 183.262C189.421 183.262 178.143 186.283 175.77 188.254ZM238.587 188.646H238.616H238.587Z" fill="#0070F3"/>
<path d="M241.346 164.628C240.149 164.628 239.037 163.868 238.644 162.671C238.155 161.18 238.965 159.573 240.459 159.081L275.71 147.499L213.101 126.93C209.113 125.619 204.892 125.619 200.898 126.93L138.292 147.499L173.54 159.081C175.031 159.57 175.844 161.178 175.355 162.671C174.866 164.164 173.265 164.975 171.763 164.483L135.177 152.462C132.993 151.745 131.582 149.797 131.582 147.499C131.582 145.2 132.993 143.252 135.175 142.532L199.123 121.52C204.277 119.828 209.722 119.828 214.879 121.52L278.825 142.532C281.009 143.252 282.42 145.2 282.417 147.499C282.417 149.797 281.006 151.745 278.822 152.462L242.237 164.486C241.941 164.58 241.642 164.628 241.346 164.628Z" fill="#0070F3"/>
<path d="M321.674 266.999H92.3262C84.979 266.999 79 261.023 79 253.676V93.3262C79 85.979 84.979 80 92.3262 80H321.677C329.021 80.0028 335 85.979 335 93.3262V253.676C335 261.023 329.021 266.999 321.674 266.999ZM92.3262 85.6917C88.1136 85.6917 84.6889 89.1164 84.6889 93.3262V253.676C84.6889 257.886 88.1136 261.313 92.3262 261.313H321.677C325.886 261.313 329.314 257.889 329.314 253.676V93.3262C329.314 89.1164 325.889 85.6889 321.677 85.6889H92.3262V85.6917Z" fill="#0070F3"/>
<path d="M332.156 233.865H81.8444C80.2743 233.865 79 232.593 79 231.02C79 229.447 80.2743 228.176 81.8444 228.176H332.156C333.729 228.176 335 229.447 335 231.02C335 232.593 333.729 233.865 332.156 233.865Z" fill="#0070F3"/>
<path d="M239.953 313.975H174.047C172.477 313.975 171.203 312.704 171.203 311.131V264.155C171.203 262.582 172.477 261.311 174.047 261.311H239.953C241.526 261.311 242.797 262.582 242.797 264.155V311.131C242.797 312.704 241.526 313.975 239.953 313.975ZM176.892 308.287H237.108V266.999H176.892V308.287Z" fill="#0070F3"/>
<path d="M261.69 313.976H152.31C150.74 313.976 149.465 312.704 149.465 311.131C149.465 309.558 150.74 308.287 152.31 308.287H261.69C263.263 308.287 264.534 309.558 264.534 311.131C264.534 312.704 263.26 313.976 261.69 313.976Z" fill="#0070F3"/>
</g>
</g>
<defs>
<filter id="filter0_d_170_91" x="30" y="23" width="379" height="374" filterUnits="userSpaceOnUse" color-interpolation-filters="sRGB">
<feFlood flood-opacity="0" result="BackgroundImageFix"/>
<feColorMatrix in="SourceAlpha" type="matrix" values="0 0 0 0 0 0 0 0 0 0 0 0 0 0 0 0 0 0 127 0" result="hardAlpha"/>
<feOffset dx="15" dy="15"/>
<feGaussianBlur stdDeviation="5"/>
<feComposite in2="hardAlpha" operator="out"/>
<feColorMatrix type="matrix" values="0 0 0 0 0 0 0 0 0 0 0 0 0 0 0 0 0 0 0.1 0"/>
<feBlend mode="normal" in2="BackgroundImageFix" result="effect1_dropShadow_170_91"/>
<feBlend mode="normal" in="SourceGraphic" in2="effect1_dropShadow_170_91" result="shape"/>
</filter>
<clipPath id="clip0_170_91">
<rect width="413" height="395" fill="white"/>
</clipPath>
</defs>
</svg>
