<svg width="58" height="58" viewBox="0 0 58 58" fill="none" xmlns="http://www.w3.org/2000/svg">
<path fill-rule="evenodd" clip-rule="evenodd" d="M16.7842 30.203L27.39 34.1852C28.216 34.4954 29.1267 34.4936 29.9515 34.1804L40.311 30.2454L40.3109 37.8122C40.311 37.8194 40.311 37.8265 40.311 37.8337C40.311 40.1649 35.0444 42.0548 28.5476 42.0548C22.0509 42.0548 16.7842 40.1649 16.7842 37.8337C16.7842 37.8313 16.7842 37.8289 16.7842 37.8265C16.7842 37.8218 16.7841 37.817 16.7842 37.8122V30.203Z" fill="black"/>
<path d="M49.8731 35.8899C50.227 35.2401 50.6271 34.3961 50.966 33.6457C51.2298 33.0614 51.9806 32.9327 52.3037 33.4865C52.8692 34.456 53.2421 35.6129 53.4274 36.3838C53.4863 36.6286 53.4347 36.8941 53.2462 37.0615C52.4482 37.7712 51.2157 37.581 50.2587 37.2181C49.7453 37.0235 49.6103 36.3721 49.8731 35.8899Z" fill="white"/>
<path fill-rule="evenodd" clip-rule="evenodd" d="M51.6739 33.5882C51.5729 33.6021 51.4487 33.6767 51.3785 33.8321C51.0382 34.5859 50.6327 35.442 50.2706 36.1066C50.194 36.2472 50.1773 36.412 50.2126 36.5465C50.2466 36.675 50.32 36.7567 50.4192 36.7944C50.8669 36.9642 51.359 37.0852 51.8153 37.0889C52.2684 37.0925 52.6545 36.9812 52.945 36.7228C52.9776 36.6939 53.017 36.6164 52.9866 36.4898C52.8068 35.7433 52.447 34.6326 51.9118 33.7147C51.847 33.6035 51.7614 33.5761 51.6739 33.5882ZM51.5502 32.6904C51.9848 32.6305 52.4366 32.8156 52.6944 33.2581L52.3033 33.4864M51.5502 32.6904C51.1293 32.7485 50.7464 33.0304 50.5525 33.4593L51.5502 32.6904ZM52.6944 33.2581C53.2902 34.2793 53.6763 35.4824 53.868 36.2777C53.955 36.6408 53.8911 37.0943 53.5472 37.4001C53.0397 37.8514 52.4098 37.9999 51.8081 37.9951C51.2095 37.9904 50.6068 37.8348 50.098 37.6418C49.2475 37.3193 49.1256 36.3146 49.4745 35.6732C49.8207 35.0382 50.2153 34.2063 50.5525 33.4593" fill="black"/>
<path fill-rule="evenodd" clip-rule="evenodd" d="M50.8647 32.4479C51.0581 32.2894 51.3436 32.3179 51.5022 32.5116C51.6576 32.7016 51.7374 32.9806 51.7877 33.2129C51.8425 33.4691 51.8806 33.7686 51.9068 34.0698C51.9594 34.6735 51.9685 35.3269 51.9608 35.7463C51.9562 35.9966 51.7496 36.1957 51.4995 36.1911C51.2494 36.1866 51.0504 35.9801 51.055 35.7298C51.0618 35.3327 51.0532 34.7123 51.0042 34.1484C50.9793 33.8657 50.9458 33.608 50.9018 33.4038C50.8796 33.3018 50.8569 33.2212 50.8347 33.1614C50.8139 33.1049 50.7999 33.0845 50.7999 33.0844C50.7999 33.0844 50.8003 33.0847 50.8008 33.0855C50.6422 32.8918 50.6707 32.6063 50.8647 32.4479Z" fill="black"/>
<path fill-rule="evenodd" clip-rule="evenodd" d="M51.418 23.701C51.7932 23.701 52.0977 24.0053 52.0977 24.3807V31.9077C52.0977 32.2831 51.7932 32.5874 51.418 32.5874C51.0423 32.5874 50.7383 32.2831 50.7383 31.9077V24.3807C50.7383 24.0053 51.0423 23.701 51.418 23.701Z" fill="black"/>
<path d="M53.2889 32.175C53.2889 33.2081 52.4515 34.0457 51.4184 34.0457C50.3852 34.0457 49.5479 33.2081 49.5479 32.175C49.5479 31.1419 50.3852 30.3044 51.4184 30.3044C52.4515 30.3044 53.2889 31.1419 53.2889 32.175Z" fill="black"/>
<path d="M27.2572 14.9983L5.29433 23.7498C4.88842 23.9116 4.89422 24.4881 5.30326 24.6417L27.329 32.9119C28.2006 33.2392 29.1617 33.2373 30.0321 32.9067L51.7927 24.641C52.1996 24.4866 52.205 23.9132 51.8018 23.7505L30.1036 15.004C29.1908 14.636 28.1714 14.634 27.2572 14.9983Z" fill="black"/>
<path fill-rule="evenodd" clip-rule="evenodd" d="M45.3198 25.1607C45.4055 25.3958 45.2845 25.6559 45.0494 25.7417L29.55 31.3981C29.3149 31.4839 29.0548 31.3629 28.969 31.1278C28.8832 30.8927 29.0042 30.6325 29.2393 30.5468L44.7387 24.8904C44.9738 24.8046 45.234 24.9256 45.3198 25.1607Z" fill="white"/>
<path fill-rule="evenodd" clip-rule="evenodd" d="M8.86671 24.1118C8.95289 23.8768 9.21326 23.7562 9.4482 23.8424L14.6282 25.7426C14.8631 25.8287 14.9837 26.0891 14.8975 26.324C14.8113 26.559 14.551 26.6796 14.3161 26.5934L9.13609 24.6932C8.90114 24.607 8.78052 24.3467 8.86671 24.1118Z" fill="white"/>
</svg>
