<svg width="413" height="395" viewBox="0 0 413 395" fill="none" xmlns="http://www.w3.org/2000/svg">
<g clip-path="url(#clip0_174_120)">
<g filter="url(#filter0_d_174_120)">
<rect x="30" y="23" width="354" height="349" rx="50" fill="white"/>
</g>
<path d="M333.221 222.559C333.215 222.537 333.221 222.516 333.212 222.494L330.29 213.361C329.93 212.234 328.916 211.447 327.732 211.378C313.789 210.554 301.077 214.157 292.007 219.68L290.662 216.509C284.22 201.316 270.34 190.905 254.303 188.735V115.936C254.303 89.5039 232.796 68 206.364 68C179.932 68 158.428 89.5039 158.428 115.936V188.707C142.296 190.81 128.316 201.242 121.842 216.507L117.736 226.191L114.965 200.652C114.831 199.419 113.924 198.486 112.782 198.208L112.524 194.367C114.63 193.772 116.11 191.76 115.956 189.494L113.34 150.55C113.2 148.449 112.249 146.526 110.661 145.141C109.073 143.756 107.035 143.069 104.943 143.212C102.843 143.352 100.919 144.302 99.5343 145.891C98.1492 147.479 97.4623 149.508 97.6054 151.609L98.4496 164.215C98.4668 164.49 98.2608 164.73 97.9832 164.75L91.3408 165.197C88.1041 165.414 85.1421 166.877 83.0043 169.323C80.8665 171.767 79.8105 174.895 80.028 178.135L80.9466 191.846C81.0296 193.108 81.602 194.264 82.555 195.097C83.2561 195.71 84.1004 196.096 84.999 196.222L85.3224 201.027C84.5211 201.594 84.0059 202.521 84.0947 203.568L91.7987 295.462C92.7546 301.492 96.5723 306.74 102.015 309.502C106.612 311.835 111.837 312.212 116.725 310.572C121.613 308.93 125.548 305.47 127.806 300.834L147.839 259.649C148.52 269.356 152.613 278.079 160.091 285.714V322.704C160.091 324.286 161.373 325.566 162.953 325.566H249.838C251.421 325.566 252.7 324.286 252.7 322.704V292.271L272.049 298.53C272.338 298.624 272.633 298.67 272.93 298.67H283.934L284.984 300.831C287.242 305.467 291.177 308.927 296.065 310.57C298.063 311.239 300.118 311.577 302.164 311.577C305.12 311.577 308.059 310.879 310.775 309.499C315.695 307.004 319.266 302.465 320.614 297.162C323.96 296.338 326.455 293.336 326.455 289.741V286.836L331.363 285.248C332.545 284.865 333.344 283.766 333.344 282.526V223.366C333.349 223.089 333.298 222.82 333.221 222.559ZM325.445 217.005L326.893 221.521L288.982 233.786H285.251C289.807 225.673 305.495 216.53 325.445 217.005ZM270.074 291.873L234.745 280.446V227.301L270.074 238.729V291.873ZM273.388 233.786L235.477 221.523L236.925 217.007C256.99 216.53 272.567 225.673 277.12 233.786H273.388V233.786ZM164.152 115.936C164.152 92.6605 183.089 73.7237 206.364 73.7237C229.639 73.7237 248.576 92.6605 248.576 115.936V188.312C248.399 188.309 248.227 188.292 248.049 188.292H239.567C234.662 188.292 230.672 184.299 230.672 179.397V171.547C238.348 162.873 243.053 150.75 243.053 139.34V115.999C243.053 114.425 241.782 113.146 240.208 113.137C230.143 113.074 224.339 110.009 218.721 105.427C217.857 104.72 216.661 104.586 215.665 105.069C204.129 110.661 191.225 113.074 172.523 113.137C170.946 113.143 169.669 114.422 169.669 115.999V139.34C169.669 150.636 174.286 162.624 181.826 171.281V179.394C181.826 184.299 177.834 188.289 172.932 188.289H164.452C164.352 188.289 164.252 188.3 164.152 188.3V115.936V115.936ZM206.364 177.86C188.924 177.86 175.396 157.155 175.396 139.343V118.835C192.667 118.549 205.211 116.156 216.535 110.991C223.026 115.936 229.304 118.294 237.335 118.772V139.343C237.332 157.155 223.807 177.86 206.364 177.86ZM187.553 179.397V176.724C192.988 180.954 199.37 183.581 206.367 183.581C213.264 183.581 219.568 181.028 224.954 176.904V179.394C224.954 185.645 228.915 190.948 234.444 193.037L206.155 236.726L177.894 193.091C183.509 191.051 187.553 185.71 187.553 179.397ZM87.3199 173.084C88.4504 171.79 90.0158 171.015 91.73 170.9L98.3724 170.454C101.795 170.225 104.394 167.251 104.165 163.829L103.318 151.222C103.238 150.032 104.142 149.002 105.33 148.919C106.489 148.827 107.55 149.74 107.633 150.93L110.189 188.993C108.085 189.588 106.606 191.597 106.758 193.869L107.07 198.526L91.0031 200.034L90.6597 194.948C90.508 192.679 88.7738 190.887 86.6074 190.578L85.7459 177.746C85.6315 176.034 86.1895 174.377 87.3199 173.084ZM246.982 319.842H165.82V284.527C165.82 283.754 165.511 283.019 164.959 282.478C154.064 271.837 150.947 259.237 155.432 243.957C155.85 242.532 155.105 241.021 153.717 240.483C152.332 239.945 150.764 240.563 150.112 241.9L122.664 298.324C121.084 301.572 118.328 303.99 114.908 305.144C111.491 306.291 107.831 306.028 104.611 304.394C100.802 302.459 98.1291 298.785 97.4881 294.772L90.0416 205.909L109.579 204.072L116.139 264.574C116.31 266.148 117.724 267.264 119.292 267.113C120.864 266.941 122 265.53 121.828 263.959L118.998 237.873L127.108 218.745C133.055 204.713 146.24 195.326 161.247 194.15C161.261 194.15 161.27 194.159 161.284 194.159C161.33 194.159 161.367 194.136 161.413 194.133C162.417 194.058 163.428 194.021 164.447 194.021H171.67L203.742 243.554C204.269 244.367 205.173 244.859 206.144 244.859C207.114 244.859 208.018 244.367 208.545 243.554L240.62 194.021H248.044C264.359 194.021 279.015 203.726 285.382 218.747L287.211 223.057C284.724 225.086 282.683 227.264 281.178 229.522C274.212 219.071 255.837 210.136 234.63 211.381C233.448 211.45 232.432 212.24 232.072 213.364L229.15 222.496C229.144 222.519 229.15 222.539 229.141 222.562C229.064 222.823 229.013 223.089 229.013 223.369V282.529C229.013 283.771 229.811 284.87 230.993 285.251L246.973 290.419V319.842H246.982ZM275.798 239.51H281.187H286.576V292.946H275.798V239.51V239.51ZM308.191 304.397C304.974 306.025 301.323 306.297 297.891 305.146C294.552 304.022 291.861 301.672 290.267 298.538C290.285 298.533 290.299 298.536 290.316 298.53L298.166 295.991C299.417 296.876 300.931 297.408 302.576 297.408H314.55C313.357 300.399 311.113 302.911 308.191 304.397ZM320.737 289.741C320.737 290.811 319.864 291.681 318.794 291.681H302.576C301.506 291.681 300.636 290.811 300.636 289.741V283.877C300.636 279.252 304.396 275.489 309.021 275.489H312.349C316.974 275.489 320.737 279.25 320.737 283.877V289.741ZM327.626 280.443L326.138 280.924C324.775 274.559 319.115 269.765 312.349 269.765H309.021C301.242 269.765 294.912 276.096 294.912 283.877V289.741C294.912 290.168 294.972 290.58 295.038 290.986L292.296 291.873V238.729L327.626 227.301V280.443V280.443Z" fill="#0070F3"/>
<path d="M198.637 133.774C199.061 133.994 199.513 134.097 199.956 134.097C200.989 134.097 201.985 133.536 202.498 132.557C203.227 131.155 202.684 129.427 201.284 128.697C195.827 125.852 190.292 125.852 184.831 128.697C183.429 129.427 182.885 131.155 183.618 132.557C184.348 133.957 186.073 134.504 187.479 133.771C191.228 131.816 194.879 131.816 198.637 133.774Z" fill="#0070F3"/>
<path d="M227.522 128.697C222.064 125.852 216.532 125.849 211.069 128.697C209.669 129.427 209.126 131.155 209.855 132.558C210.585 133.96 212.302 134.509 213.719 133.771C217.468 131.813 221.12 131.811 224.872 133.771C225.295 133.991 225.75 134.094 226.194 134.094C227.227 134.094 228.223 133.533 228.735 132.555C229.465 131.158 228.924 129.43 227.522 128.697Z" fill="#0070F3"/>
<path d="M222.012 151.809H190.343C189.259 151.809 188.266 152.425 187.782 153.395C187.298 154.368 187.407 155.53 188.06 156.397C193.858 164.069 199.936 167.964 206.126 167.976C206.135 167.976 206.141 167.976 206.149 167.976C212.345 167.976 218.447 164.084 224.288 156.405C224.946 155.541 225.057 154.376 224.574 153.4C224.093 152.424 223.1 151.809 222.012 151.809ZM206.149 162.252C206.146 162.252 206.141 162.252 206.135 162.252C203.076 162.246 199.896 160.664 196.636 157.533H215.693C212.411 160.669 209.214 162.252 206.149 162.252Z" fill="#0070F3"/>
</g>
<defs>
<filter id="filter0_d_174_120" x="30" y="23" width="379" height="374" filterUnits="userSpaceOnUse" color-interpolation-filters="sRGB">
<feFlood flood-opacity="0" result="BackgroundImageFix"/>
<feColorMatrix in="SourceAlpha" type="matrix" values="0 0 0 0 0 0 0 0 0 0 0 0 0 0 0 0 0 0 127 0" result="hardAlpha"/>
<feOffset dx="15" dy="15"/>
<feGaussianBlur stdDeviation="5"/>
<feComposite in2="hardAlpha" operator="out"/>
<feColorMatrix type="matrix" values="0 0 0 0 0 0 0 0 0 0 0 0 0 0 0 0 0 0 0.1 0"/>
<feBlend mode="normal" in2="BackgroundImageFix" result="effect1_dropShadow_174_120"/>
<feBlend mode="normal" in="SourceGraphic" in2="effect1_dropShadow_174_120" result="shape"/>
</filter>
<clipPath id="clip0_174_120">
<rect width="413" height="395" fill="white"/>
</clipPath>
</defs>
</svg>
